<?xml version="1.0" encoding="UTF-8"?>
<svg width="150px" height="100px" viewBox="0 0 150 100" version="1.1" xmlns="http://www.w3.org/2000/svg" xmlns:xlink="http://www.w3.org/1999/xlink">
    <!-- Generator: Sketch 47.1 (45422) - http://www.bohemiancoding.com/sketch -->
    <title>event_overview</title>
    <desc>Created with Sketch.</desc>
    <defs></defs>
    <g id="Page-1" stroke="none" stroke-width="1" fill="none" fill-rule="evenodd">
        <g id="event_overview">
            <g id="Group" transform="translate(27.000000, 25.000000)" stroke="#FF6B6B" stroke-width="2">
                <rect id="Rectangle-5" x="-1" y="-1" width="98" height="52"></rect>
            </g>
            <path d="M69.0079841,40.7627341 L76.7130873,54.3901926 C76.8079012,54.5578833 77.0126838,54.6016889 77.1646777,54.492216 L83.7008481,49.7845655 C84.0067865,49.5642145 84.414189,49.6410864 84.6184856,49.968572 L96.4974226,64.1642506 C96.6982814,64.4862254 96.5530543,64.7472378 96.1984017,64.7472378 L54.4232137,64.7472378 C54.0562333,64.7472378 53.8967872,64.4746218 54.0700811,64.1324084 L68.3539231,40.7714248 C68.5258737,40.4318639 68.8221229,40.4340149 69.0079841,40.7627341 Z M90.7483157,43.2692308 C92.708398,43.2692308 94.2973587,41.6419581 94.2973587,39.6346154 C94.2973587,37.6272727 92.708398,36 90.7483157,36 C88.7882334,36 87.1992726,37.6272727 87.1992726,39.6346154 C87.1992726,41.6419581 88.7882334,43.2692308 90.7483157,43.2692308 Z" id="path-1" fill="#FF6B6B" opacity="0.119999997"></path>
            <rect id="Rectangle" fill="#FF6B6B" x="34" y="60" width="43" height="5"></rect>
            <path d="M34.5,68.5 L58.5,68.5" id="Line" stroke="#FF6B6B" stroke-linecap="square"></path>
            <circle id="Oval-2" fill="#FF6B6B" cx="39" cy="37" r="6"></circle>
        </g>
    </g>
</svg>