<?xml version="1.0" encoding="UTF-8"?>
<svg width="150px" height="100px" viewBox="0 0 150 100" version="1.1" xmlns="http://www.w3.org/2000/svg" xmlns:xlink="http://www.w3.org/1999/xlink">
    <!-- Generator: Sketch 47.1 (45422) - http://www.bohemiancoding.com/sketch -->
    <title>fact</title>
    <desc>Created with Sketch.</desc>
    <defs></defs>
    <g id="Page-1" stroke="none" stroke-width="1" fill="none" fill-rule="evenodd">
        <g id="fact" fill="#FF6B6B">
            <path d="M61.64,41.1 C61.64,39.6199926 61.6899995,38.2000068 61.79,36.84 C61.8900005,35.4799932 62.1599978,34.2750052 62.6,33.225 C63.0400022,32.1749948 63.7049955,31.3350032 64.595,30.705 C65.4850045,30.0749969 66.7199921,29.76 68.3,29.76 C69.6000065,29.76 70.6749957,29.9449982 71.525,30.315 C72.3750043,30.6850018 73.0549975,31.2799959 73.565,32.1 C74.0750025,32.9200041 74.4349989,33.9849935 74.645,35.295 C74.855001,36.6050065 74.96,38.1999906 74.96,40.08 C74.96,41.5600074 74.9100005,42.9799932 74.81,44.34 C74.7099995,45.7000068 74.4400022,46.9049948 74,47.955 C73.5599978,49.0050052 72.8950045,49.829997 72.005,50.43 C71.1149956,51.030003 69.8800079,51.33 68.3,51.33 C67.0199936,51.33 65.9500043,51.1600017 65.09,50.82 C64.2299957,50.4799983 63.5450025,49.9000041 63.035,49.08 C62.5249975,48.2599959 62.1650011,47.1950066 61.955,45.885 C61.744999,44.5749935 61.64,42.9800094 61.64,41.1 Z M65.96,42.03 C65.96,43.3700067 65.9949996,44.4649957 66.065,45.315 C66.1350003,46.1650042 66.2599991,46.8349975 66.44,47.325 C66.6200009,47.8150025 66.8599985,48.1499991 67.16,48.33 C67.4600015,48.5100009 67.8399977,48.6 68.3,48.6 C68.7800024,48.6 69.1699985,48.4850012 69.47,48.255 C69.7700015,48.0249989 70.0049992,47.6350027 70.175,47.085 C70.3450009,46.5349973 70.4649996,45.8000046 70.535,44.88 C70.6050003,43.9599954 70.64,42.8200068 70.64,41.46 L70.64,39.15 C70.64,37.8099933 70.6050003,36.7150042 70.535,35.865 C70.4649996,35.0149957 70.3400009,34.3450024 70.16,33.855 C69.9799991,33.3649975 69.7400015,33.0300009 69.44,32.85 C69.1399985,32.6699991 68.7600023,32.58 68.3,32.58 C67.8199976,32.58 67.4300015,32.6949988 67.13,32.925 C66.8299985,33.1550011 66.5950009,33.5449972 66.425,34.095 C66.2549992,34.6450028 66.1350003,35.3799954 66.065,36.3 C65.9949996,37.2200046 65.96,38.3599932 65.96,39.72 L65.96,42.03 Z M76.04,41.1 C76.04,39.6199926 76.0899995,38.2000068 76.19,36.84 C76.2900005,35.4799932 76.5599978,34.2750052 77,33.225 C77.4400022,32.1749948 78.1049955,31.3350032 78.995,30.705 C79.8850044,30.0749969 81.1199921,29.76 82.7,29.76 C84.0000065,29.76 85.0749957,29.9449982 85.925,30.315 C86.7750042,30.6850018 87.4549975,31.2799959 87.965,32.1 C88.4750025,32.9200041 88.8349989,33.9849935 89.045,35.295 C89.2550011,36.6050065 89.36,38.1999906 89.36,40.08 C89.36,41.5600074 89.3100005,42.9799932 89.21,44.34 C89.1099995,45.7000068 88.8400022,46.9049948 88.4,47.955 C87.9599978,49.0050052 87.2950044,49.829997 86.405,50.43 C85.5149956,51.030003 84.2800079,51.33 82.7,51.33 C81.4199936,51.33 80.3500043,51.1600017 79.49,50.82 C78.6299957,50.4799983 77.9450025,49.9000041 77.435,49.08 C76.9249975,48.2599959 76.5650011,47.1950066 76.355,45.885 C76.144999,44.5749935 76.04,42.9800094 76.04,41.1 Z M80.36,42.03 C80.36,43.3700067 80.3949997,44.4649957 80.465,45.315 C80.5350004,46.1650042 80.6599991,46.8349975 80.84,47.325 C81.0200009,47.8150025 81.2599985,48.1499991 81.56,48.33 C81.8600015,48.5100009 82.2399977,48.6 82.7,48.6 C83.1800024,48.6 83.5699985,48.4850012 83.87,48.255 C84.1700015,48.0249989 84.4049992,47.6350027 84.575,47.085 C84.7450008,46.5349973 84.8649997,45.8000046 84.935,44.88 C85.0050004,43.9599954 85.04,42.8200068 85.04,41.46 L85.04,39.15 C85.04,37.8099933 85.0050004,36.7150042 84.935,35.865 C84.8649997,35.0149957 84.7400009,34.3450024 84.56,33.855 C84.3799991,33.3649975 84.1400015,33.0300009 83.84,32.85 C83.5399985,32.6699991 83.1600023,32.58 82.7,32.58 C82.2199976,32.58 81.8300015,32.6949988 81.53,32.925 C81.2299985,33.1550011 80.9950008,33.5449972 80.825,34.095 C80.6549991,34.6450028 80.5350004,35.3799954 80.465,36.3 C80.3949997,37.2200046 80.36,38.3599932 80.36,39.72 L80.36,42.03 Z" id="00"></path>
            <path d="M42.9865,70 L48.1735,70 L48.1735,68.466 L44.8585,68.466 L44.8585,60.718 L42.9865,60.718 L42.9865,70 Z M50.5135,66.503 C50.5135,66.8583351 50.5221666,67.1876652 50.5395,67.491 C50.5568334,67.7943348 50.5979997,68.0543323 50.663,68.271 C50.7280003,68.4876677 50.8254993,68.6566661 50.9555,68.778 C51.0855006,68.8993339 51.2588322,68.96 51.4755,68.96 C51.8395018,68.96 52.0908326,68.7693352 52.2295,68.388 C52.3681674,68.0066648 52.4375,67.3783377 52.4375,66.503 C52.4375,65.6276623 52.3681674,64.9993352 52.2295,64.618 C52.0908326,64.2366648 51.8395018,64.046 51.4755,64.046 C51.2588322,64.046 51.0855006,64.1066661 50.9555,64.228 C50.8254993,64.3493339 50.7280003,64.5183323 50.663,64.735 C50.5979997,64.9516677 50.5568334,65.2116652 50.5395,65.515 C50.5221666,65.8183348 50.5135,66.1476649 50.5135,66.503 Z M48.7195,66.503 C48.7195,65.904997 48.7671662,65.3763356 48.8625,64.917 C48.9578338,64.4576644 49.1138322,64.0741682 49.3305,63.7665 C49.5471677,63.4588318 49.8309982,63.2248341 50.182,63.0645 C50.5330018,62.9041659 50.9641641,62.824 51.4755,62.824 C52.012836,62.8153333 52.4591649,62.8868326 52.8145,63.0385 C53.1698351,63.1901674 53.451499,63.4219984 53.6595,63.734 C53.867501,64.0460016 54.0148329,64.4316644 54.1015,64.891 C54.1881671,65.3503356 54.2315,65.8876636 54.2315,66.503 C54.2315,67.101003 54.1838338,67.6296644 54.0885,68.089 C53.9931662,68.5483356 53.8371677,68.9318318 53.6205,69.2395 C53.4038322,69.5471682 53.1200018,69.7746659 52.769,69.922 C52.4179982,70.0693341 51.9868359,70.143 51.4755,70.143 C50.938164,70.1516667 50.4918351,70.0845007 50.1365,69.9415 C49.7811649,69.7984993 49.499501,69.5731682 49.2915,69.2655 C49.083499,68.9578318 48.9361671,68.572169 48.8495,68.1085 C48.7628329,67.644831 48.7195,67.1096697 48.7195,66.503 Z M55.1935,63.006 L55.1935,70 L56.9875,70 L56.9875,65.801 C56.9875,65.5669988 57.0264996,65.3698341 57.1045,65.2095 C57.1825004,65.0491659 57.2864993,64.9191672 57.4165,64.8195 C57.5465006,64.7198328 57.6894992,64.6483336 57.8455,64.605 C58.0015008,64.5616665 58.1574992,64.54 58.3135,64.54 C58.4088338,64.54 58.5019995,64.5421666 58.593,64.5465 C58.6840005,64.5508334 58.7771662,64.5573333 58.8725,64.566 L58.8725,62.85 C58.8204997,62.8413333 58.7663336,62.8348334 58.71,62.8305 C58.6536664,62.8261666 58.5995003,62.824 58.5475,62.824 C58.1748315,62.824 57.8585013,62.9258323 57.5985,63.1295 C57.3384987,63.3331677 57.1175009,63.6039983 56.9355,63.942 L56.9095,63.942 L56.9095,63.006 L55.1935,63.006 Z M62.8895,65.71 C62.8808333,65.441332 62.8635001,65.2051677 62.8375,65.0015 C62.8114999,64.7978323 62.7660003,64.6245007 62.701,64.4815 C62.6359997,64.3384993 62.5450006,64.230167 62.428,64.1565 C62.3109994,64.082833 62.1615009,64.046 61.9795,64.046 C61.7974991,64.046 61.6480006,64.0871663 61.531,64.1695 C61.4139994,64.2518337 61.3208337,64.360166 61.2515,64.4945 C61.1821663,64.628834 61.1323335,64.7783325 61.102,64.943 C61.0716665,65.1076675 61.0565,65.2723325 61.0565,65.437 L61.0565,65.71 L62.8895,65.71 Z M61.0565,66.776 L61.0565,67.335 C61.0565,67.543001 61.0716665,67.744499 61.102,67.9395 C61.1323335,68.134501 61.1821663,68.3078326 61.2515,68.4595 C61.3208337,68.6111674 61.4118328,68.7324995 61.5245,68.8235 C61.6371672,68.9145005 61.7758325,68.96 61.9405,68.96 C62.2438348,68.96 62.4648326,68.8516678 62.6035,68.635 C62.7421674,68.4183322 62.8374997,68.0890022 62.8895,67.647 L64.5015,67.647 C64.4668332,68.4616707 64.2501687,69.0813312 63.8515,69.506 C63.4528313,69.9306688 62.8245043,70.143 61.9665,70.143 C61.3164967,70.143 60.8095018,70.0346677 60.4455,69.818 C60.0814982,69.6013322 59.8128342,69.3153351 59.6395,68.96 C59.4661658,68.6046649 59.3600002,68.2060022 59.321,67.764 C59.2819998,67.3219978 59.2625,66.8800022 59.2625,66.438 C59.2625,65.9699977 59.2949997,65.5193355 59.36,65.086 C59.4250003,64.6526645 59.554999,64.2670017 59.75,63.929 C59.945001,63.5909983 60.2244982,63.3223343 60.5885,63.123 C60.9525018,62.9236657 61.4378303,62.824 62.0445,62.824 C62.5645026,62.824 62.9913317,62.9084992 63.325,63.0775 C63.6586683,63.2465008 63.9208324,63.4848318 64.1115,63.7925 C64.3021676,64.1001682 64.4321663,64.4728311 64.5015,64.9105 C64.5708337,65.3481689 64.6055,65.835664 64.6055,66.373 L64.6055,66.776 L61.0565,66.776 Z M65.5415,63.006 L65.5415,70 L67.3355,70 L67.3355,65.398 C67.3355,64.9819979 67.4199992,64.6786676 67.589,64.488 C67.7580008,64.2973324 67.9854986,64.202 68.2715,64.202 C68.5228346,64.202 68.7026661,64.2799992 68.811,64.436 C68.9193339,64.5920008 68.9735,64.8173319 68.9735,65.112 L68.9735,70 L70.7675,70 L70.7675,65.398 C70.7675,64.9819979 70.8519992,64.6786676 71.021,64.488 C71.1900008,64.2973324 71.4174986,64.202 71.7035,64.202 C71.9548346,64.202 72.1346661,64.2799992 72.243,64.436 C72.3513339,64.5920008 72.4055,64.8173319 72.4055,65.112 L72.4055,70 L74.1995,70 L74.1995,64.917 C74.1995,64.2409966 74.0586681,63.7231685 73.777,63.3635 C73.4953319,63.0038315 73.055503,62.824 72.4575,62.824 C72.0328312,62.824 71.6666682,62.9171657 71.359,63.1035 C71.0513318,63.2898343 70.8281674,63.5693315 70.6895,63.942 L70.6635,63.942 C70.5681662,63.5779982 70.3796681,63.3006676 70.098,63.11 C69.8163319,62.9193324 69.4675021,62.824 69.0515,62.824 C68.661498,62.824 68.3256681,62.8933326 68.044,63.032 C67.7623319,63.1706674 67.5088345,63.4003317 67.2835,63.721 L67.2575,63.721 L67.2575,63.006 L65.5415,63.006 Z M78.5805,60.614 L78.5805,62.148 L80.3745,62.148 L80.3745,60.614 L78.5805,60.614 Z M78.5805,63.006 L78.5805,70 L80.3745,70 L80.3745,63.006 L78.5805,63.006 Z M81.6355,63.006 L83.3515,63.006 L83.3515,63.747 L83.3775,63.747 C83.5768343,63.417665 83.7999988,63.1815007 84.047,63.0385 C84.2940012,62.8954993 84.5994982,62.824 84.9635,62.824 C85.7001703,62.824 86.2418316,63.1121638 86.5885,63.6885 C86.9351684,64.2648362 87.1085,65.2029935 87.1085,66.503 C87.1085,67.8030065 86.9351684,68.7346639 86.5885,69.298 C86.2418316,69.8613361 85.7001703,70.143 84.9635,70.143 C84.6254983,70.143 84.3373345,70.0801673 84.099,69.9545 C83.8606655,69.8288327 83.6461676,69.6273347 83.4555,69.35 L83.4295,69.35 L83.4295,72.249 L81.6355,72.249 L81.6355,63.006 Z M83.4295,66.503 C83.4295,67.2656705 83.4879994,67.8398314 83.605,68.2255 C83.7220006,68.6111686 83.9798313,68.804 84.3785,68.804 C84.7685019,68.804 85.0219994,68.6111686 85.139,68.2255 C85.2560006,67.8398314 85.3145,67.2656705 85.3145,66.503 C85.3145,65.7403295 85.2560006,65.1661686 85.139,64.7805 C85.0219994,64.3948314 84.7685019,64.202 84.3785,64.202 C83.9798313,64.202 83.7220006,64.3948314 83.605,64.7805 C83.4879994,65.1661686 83.4295,65.7403295 83.4295,66.503 Z M89.4485,67.712 L87.8365,67.712 L87.8365,67.959 C87.8365,68.2970017 87.8754996,68.6024986 87.9535,68.8755 C88.0315004,69.1485014 88.167999,69.3803324 88.363,69.571 C88.558001,69.7616676 88.8223317,69.9046662 89.156,70 C89.4896683,70.0953338 89.9078308,70.143 90.4105,70.143 C90.7918352,70.143 91.1406651,70.1040004 91.457,70.026 C91.7733349,69.9479996 92.0463322,69.8180009 92.276,69.636 C92.5056678,69.4539991 92.6854993,69.2265014 92.8155,68.9535 C92.9455006,68.6804986 93.0105,68.3576685 93.0105,67.985 C93.0105,67.4563307 92.8935012,67.0381682 92.6595,66.7305 C92.4254988,66.4228318 92.0268361,66.1736676 91.4635,65.983 L90.3845,65.619 C90.0811651,65.5236662 89.8753339,65.4066674 89.767,65.268 C89.6586661,65.1293326 89.6045,64.9733342 89.6045,64.8 C89.6045,64.5486654 89.6889992,64.3601673 89.858,64.2345 C90.0270008,64.1088327 90.2241655,64.046 90.4495,64.046 C90.7441681,64.046 90.9499994,64.1304992 91.067,64.2995 C91.1840006,64.4685008 91.2425,64.7349982 91.2425,65.099 L92.8545,65.099 L92.8545,64.813 C92.8545,64.1803302 92.6595019,63.6906684 92.2695,63.344 C91.879498,62.9973316 91.2771707,62.824 90.4625,62.824 C90.0031644,62.824 89.6110016,62.8803328 89.286,62.993 C88.9609984,63.1056672 88.694501,63.2573324 88.4865,63.448 C88.278499,63.6386676 88.1268338,63.8618321 88.0315,64.1175 C87.9361662,64.3731679 87.8885,64.6439986 87.8885,64.93 C87.8885,65.4240025 88.0141654,65.8291651 88.2655,66.1455 C88.5168346,66.4618349 88.8894975,66.7066658 89.3835,66.88 L90.6445,67.335 C90.8178342,67.4043337 90.9694993,67.4974994 91.0995,67.6145 C91.2295006,67.7315006 91.2945,67.9026655 91.2945,68.128 C91.2945,68.4053347 91.2121675,68.6133326 91.0475,68.752 C90.8828325,68.8906674 90.6618347,68.96 90.3845,68.96 C90.0811651,68.96 89.8493341,68.8668343 89.689,68.6805 C89.5286659,68.4941657 89.4485,68.2493348 89.4485,67.946 L89.4485,67.712 Z M97.4955,69.181 L97.4955,70 L99.2115,70 L99.2115,63.006 L97.4175,63.006 L97.4175,67.647 C97.4175,68.4183372 97.1011698,68.804 96.4685,68.804 C96.199832,68.804 96.0048339,68.7325007 95.8835,68.5895 C95.7621661,68.4464993 95.7015,68.1930018 95.7015,67.829 L95.7015,63.006 L93.9075,63.006 L93.9075,68.193 C93.9075,68.8950035 94.0613318,69.3954985 94.369,69.6945 C94.6766682,69.9935015 95.1164971,70.143 95.6885,70.143 C96.0785019,70.143 96.4251651,70.0693341 96.7285,69.922 C97.0318348,69.7746659 97.2788324,69.5276684 97.4695,69.181 L97.4955,69.181 Z M100.4075,63.006 L100.4075,70 L102.2015,70 L102.2015,65.398 C102.2015,64.9819979 102.285999,64.6786676 102.455,64.488 C102.624001,64.2973324 102.851499,64.202 103.1375,64.202 C103.388835,64.202 103.568666,64.2799992 103.677,64.436 C103.785334,64.5920008 103.8395,64.8173319 103.8395,65.112 L103.8395,70 L105.6335,70 L105.6335,65.398 C105.6335,64.9819979 105.717999,64.6786676 105.887,64.488 C106.056001,64.2973324 106.283499,64.202 106.5695,64.202 C106.820835,64.202 107.000666,64.2799992 107.109,64.436 C107.217334,64.5920008 107.2715,64.8173319 107.2715,65.112 L107.2715,70 L109.0655,70 L109.0655,64.917 C109.0655,64.2409966 108.924668,63.7231685 108.643,63.3635 C108.361332,63.0038315 107.921503,62.824 107.3235,62.824 C106.898831,62.824 106.532668,62.9171657 106.225,63.1035 C105.917332,63.2898343 105.694167,63.5693315 105.5555,63.942 L105.5295,63.942 C105.434166,63.5779982 105.245668,63.3006676 104.964,63.11 C104.682332,62.9193324 104.333502,62.824 103.9175,62.824 C103.527498,62.824 103.191668,62.8933326 102.91,63.032 C102.628332,63.1706674 102.374834,63.4003317 102.1495,63.721 L102.1235,63.721 L102.1235,63.006 L100.4075,63.006 Z" id="Lorem-ipsum"></path>
        </g>
    </g>
</svg>