<?xml version="1.0" encoding="UTF-8"?>
<svg width="150px" height="100px" viewBox="0 0 150 100" version="1.1" xmlns="http://www.w3.org/2000/svg" xmlns:xlink="http://www.w3.org/1999/xlink">
    <!-- Generator: Sketch 47.1 (45422) - http://www.bohemiancoding.com/sketch -->
    <title>headline</title>
    <desc>Created with Sketch.</desc>
    <defs></defs>
    <g id="Page-1" stroke="none" stroke-width="1" fill="none" fill-rule="evenodd">
        <g id="headline" fill="#FF6B6B">
            <path d="M25,49 L32.98,49 L32.98,46.64 L27.88,46.64 L27.88,34.72 L25,34.72 L25,49 Z M36.58,43.62 C36.58,44.1666694 36.5933332,44.673331 36.62,45.14 C36.6466668,45.606669 36.7099995,46.006665 36.81,46.34 C36.9100005,46.673335 37.059999,46.9333324 37.26,47.12 C37.460001,47.3066676 37.726665,47.4 38.06,47.4 C38.6200028,47.4 39.0066656,47.1066696 39.22,46.52 C39.4333344,45.9333304 39.54,44.9666734 39.54,43.62 C39.54,42.2733266 39.4333344,41.3066696 39.22,40.72 C39.0066656,40.1333304 38.6200028,39.84 38.06,39.84 C37.726665,39.84 37.460001,39.9333324 37.26,40.12 C37.059999,40.3066676 36.9100005,40.566665 36.81,40.9 C36.7099995,41.233335 36.6466668,41.633331 36.62,42.1 C36.5933332,42.566669 36.58,43.0733306 36.58,43.62 Z M33.82,43.62 C33.82,42.6999954 33.8933326,41.8866702 34.04,41.18 C34.1866674,40.4733298 34.426665,39.8833357 34.76,39.41 C35.093335,38.9366643 35.5299973,38.5766679 36.07,38.33 C36.6100027,38.0833321 37.2733294,37.96 38.06,37.96 C38.8866708,37.9466666 39.5733306,38.0566655 40.12,38.29 C40.6666694,38.5233345 41.0999984,38.8799976 41.42,39.36 C41.7400016,39.8400024 41.966666,40.4333298 42.1,41.14 C42.233334,41.8466702 42.3,42.6733286 42.3,43.62 C42.3,44.5400046 42.2266674,45.3533298 42.08,46.06 C41.9333326,46.7666702 41.693335,47.3566643 41.36,47.83 C41.026665,48.3033357 40.5900027,48.6533322 40.05,48.88 C39.5099973,49.1066678 38.8466706,49.22 38.06,49.22 C37.2333292,49.2333334 36.5466694,49.1300011 36,48.91 C35.4533306,48.6899989 35.0200016,48.3433357 34.7,47.87 C34.3799984,47.3966643 34.153334,46.8033369 34.02,46.09 C33.886666,45.3766631 33.82,44.553338 33.82,43.62 Z M43.78,38.24 L43.78,49 L46.54,49 L46.54,42.54 C46.54,42.1799982 46.5999994,41.8766679 46.72,41.63 C46.8400006,41.3833321 46.999999,41.1833341 47.2,41.03 C47.400001,40.8766659 47.6199988,40.766667 47.86,40.7 C48.1000012,40.633333 48.3399988,40.6 48.58,40.6 C48.7266674,40.6 48.8699993,40.6033333 49.01,40.61 C49.1500007,40.6166667 49.2933326,40.6266666 49.44,40.64 L49.44,38 C49.3599996,37.9866666 49.2766671,37.9766667 49.19,37.97 C49.1033329,37.9633333 49.0200004,37.96 48.94,37.96 C48.3666638,37.96 47.880002,38.1166651 47.48,38.43 C47.079998,38.7433349 46.7400014,39.1599974 46.46,39.68 L46.42,39.68 L46.42,38.24 L43.78,38.24 Z M55.62,42.4 C55.6066666,41.9866646 55.5800002,41.6233349 55.54,41.31 C55.4999998,40.9966651 55.4300005,40.7300011 55.33,40.51 C55.2299995,40.2899989 55.0900009,40.1233339 54.91,40.01 C54.7299991,39.8966661 54.5000014,39.84 54.22,39.84 C53.9399986,39.84 53.7100009,39.9033327 53.53,40.03 C53.3499991,40.1566673 53.2066672,40.3233323 53.1,40.53 C52.9933328,40.7366677 52.9166669,40.9666654 52.87,41.22 C52.8233331,41.4733346 52.8,41.7266654 52.8,41.98 L52.8,42.4 L55.62,42.4 Z M52.8,44.04 L52.8,44.9 C52.8,45.2200016 52.8233331,45.5299985 52.87,45.83 C52.9166669,46.1300015 52.9933328,46.3966655 53.1,46.63 C53.2066672,46.8633345 53.3466658,47.0499993 53.52,47.19 C53.6933342,47.3300007 53.9066654,47.4 54.16,47.4 C54.626669,47.4 54.9666656,47.233335 55.18,46.9 C55.3933344,46.566665 55.5399996,46.0600034 55.62,45.38 L58.1,45.38 C58.0466664,46.6333396 57.7133364,47.5866634 57.1,48.24 C56.4866636,48.8933366 55.5200066,49.22 54.2,49.22 C53.199995,49.22 52.4200028,49.053335 51.86,48.72 C51.2999972,48.386665 50.886668,47.9466694 50.62,47.4 C50.353332,46.8533306 50.1900003,46.2400034 50.13,45.56 C50.0699997,44.8799966 50.04,44.2000034 50.04,43.52 C50.04,42.7999964 50.0899995,42.10667 50.19,41.44 C50.2900005,40.77333 50.4899985,40.1800026 50.79,39.66 C51.0900015,39.1399974 51.5199972,38.7266682 52.08,38.42 C52.6400028,38.1133318 53.386662,37.96 54.32,37.96 C55.120004,37.96 55.7766641,38.0899987 56.29,38.35 C56.8033359,38.6100013 57.2066652,38.9766643 57.5,39.45 C57.7933348,39.9233357 57.9933328,40.4966633 58.1,41.17 C58.2066672,41.8433367 58.26,42.5933292 58.26,43.42 L58.26,44.04 L52.8,44.04 Z M59.7,38.24 L59.7,49 L62.46,49 L62.46,41.92 C62.46,41.2799968 62.5899987,40.8133348 62.85,40.52 C63.1100013,40.2266652 63.4599978,40.08 63.9,40.08 C64.2866686,40.08 64.5633325,40.1999988 64.73,40.44 C64.8966675,40.6800012 64.98,41.0266644 64.98,41.48 L64.98,49 L67.74,49 L67.74,41.92 C67.74,41.2799968 67.8699987,40.8133348 68.13,40.52 C68.3900013,40.2266652 68.7399978,40.08 69.18,40.08 C69.5666686,40.08 69.8433325,40.1999988 70.01,40.44 C70.1766675,40.6800012 70.26,41.0266644 70.26,41.48 L70.26,49 L73.02,49 L73.02,41.18 C73.02,40.1399948 72.8033355,39.3433361 72.37,38.79 C71.9366645,38.2366639 71.2600046,37.96 70.34,37.96 C69.6866634,37.96 69.1233357,38.1033319 68.65,38.39 C68.1766643,38.6766681 67.8333344,39.1066638 67.62,39.68 L67.58,39.68 C67.4333326,39.1199972 67.1433355,38.6933348 66.71,38.4 C66.2766645,38.1066652 65.7400032,37.96 65.1,37.96 C64.499997,37.96 63.9833355,38.0666656 63.55,38.28 C63.1166645,38.4933344 62.7266684,38.8466642 62.38,39.34 L62.34,39.34 L62.34,38.24 L59.7,38.24 Z M79.88,49 L82.76,49 L82.76,34.72 L79.88,34.72 L79.88,49 Z M84.82,38.24 L87.46,38.24 L87.46,39.38 L87.5,39.38 C87.8066682,38.8733308 88.1499981,38.5100011 88.53,38.29 C88.9100019,38.0699989 89.3799972,37.96 89.94,37.96 C91.073339,37.96 91.906664,38.4033289 92.44,39.29 C92.973336,40.1766711 93.24,41.61999 93.24,43.62 C93.24,45.62001 92.973336,47.053329 92.44,47.92 C91.906664,48.786671 91.073339,49.22 89.94,49.22 C89.4199974,49.22 88.9766685,49.1233343 88.61,48.93 C88.2433315,48.7366657 87.9133348,48.4266688 87.62,48 L87.58,48 L87.58,52.46 L84.82,52.46 L84.82,38.24 Z M87.58,43.62 C87.58,44.7933392 87.6699991,45.6766637 87.85,46.27 C88.0300009,46.8633363 88.4266636,47.16 89.04,47.16 C89.640003,47.16 90.0299991,46.8633363 90.21,46.27 C90.3900009,45.6766637 90.48,44.7933392 90.48,43.62 C90.48,42.4466608 90.3900009,41.5633363 90.21,40.97 C90.0299991,40.3766637 89.640003,40.08 89.04,40.08 C88.4266636,40.08 88.0300009,40.3766637 87.85,40.97 C87.6699991,41.5633363 87.58,42.4466608 87.58,43.62 Z M96.84,45.48 L94.36,45.48 L94.36,45.86 C94.36,46.3800026 94.4199994,46.8499979 94.54,47.27 C94.6600006,47.6900021 94.8699985,48.0466652 95.17,48.34 C95.4700015,48.6333348 95.8766641,48.8533326 96.39,49 C96.9033359,49.1466674 97.5466628,49.22 98.32,49.22 C98.9066696,49.22 99.4433309,49.1600006 99.93,49.04 C100.416669,48.9199994 100.836665,48.7200014 101.19,48.44 C101.543335,48.1599986 101.819999,47.8100021 102.02,47.39 C102.220001,46.9699979 102.32,46.4733362 102.32,45.9 C102.32,45.0866626 102.140002,44.4433357 101.78,43.97 C101.419998,43.4966643 100.806671,43.1133348 99.94,42.82 L98.28,42.26 C97.813331,42.1133326 97.4966675,41.9333344 97.33,41.72 C97.1633325,41.5066656 97.08,41.266668 97.08,41 C97.08,40.6133314 97.2099987,40.3233343 97.47,40.13 C97.7300013,39.9366657 98.0333316,39.84 98.38,39.84 C98.8333356,39.84 99.1499991,39.9699987 99.33,40.23 C99.5100009,40.4900013 99.6,40.8999972 99.6,41.46 L102.08,41.46 L102.08,41.02 C102.08,40.0466618 101.780003,39.293336 101.18,38.76 C100.579997,38.226664 99.6533396,37.96 98.4,37.96 C97.6933298,37.96 97.0900025,38.0466658 96.59,38.22 C96.0899975,38.3933342 95.6800016,38.6266652 95.36,38.92 C95.0399984,39.2133348 94.8066674,39.5566647 94.66,39.95 C94.5133326,40.3433353 94.44,40.7599978 94.44,41.2 C94.44,41.9600038 94.6333314,42.5833309 95.02,43.07 C95.4066686,43.5566691 95.9799962,43.933332 96.74,44.2 L98.68,44.9 C98.946668,45.0066672 99.179999,45.1499991 99.38,45.33 C99.580001,45.5100009 99.68,45.7733316 99.68,46.12 C99.68,46.5466688 99.5533346,46.8666656 99.3,47.08 C99.0466654,47.2933344 98.7066688,47.4 98.28,47.4 C97.813331,47.4 97.4566679,47.2566681 97.21,46.97 C96.9633321,46.6833319 96.84,46.306669 96.84,45.84 L96.84,45.48 Z M109.22,47.74 L109.22,49 L111.86,49 L111.86,38.24 L109.1,38.24 L109.1,45.38 C109.1,46.5666726 108.613338,47.16 107.64,47.16 C107.226665,47.16 106.926668,47.0500011 106.74,46.83 C106.553332,46.6099989 106.46,46.2200028 106.46,45.66 L106.46,38.24 L103.7,38.24 L103.7,46.22 C103.7,47.3000054 103.936664,48.0699977 104.41,48.53 C104.883336,48.9900023 105.559996,49.22 106.44,49.22 C107.040003,49.22 107.573331,49.1066678 108.04,48.88 C108.506669,48.6533322 108.886665,48.273336 109.18,47.74 L109.22,47.74 Z M113.7,38.24 L113.7,49 L116.46,49 L116.46,41.92 C116.46,41.2799968 116.589999,40.8133348 116.85,40.52 C117.110001,40.2266652 117.459998,40.08 117.9,40.08 C118.286669,40.08 118.563333,40.1999988 118.73,40.44 C118.896668,40.6800012 118.98,41.0266644 118.98,41.48 L118.98,49 L121.74,49 L121.74,41.92 C121.74,41.2799968 121.869999,40.8133348 122.13,40.52 C122.390001,40.2266652 122.739998,40.08 123.18,40.08 C123.566669,40.08 123.843333,40.1999988 124.01,40.44 C124.176667,40.6800012 124.26,41.0266644 124.26,41.48 L124.26,49 L127.02,49 L127.02,41.18 C127.02,40.1399948 126.803335,39.3433361 126.37,38.79 C125.936664,38.2366639 125.260005,37.96 124.34,37.96 C123.686663,37.96 123.123336,38.1033319 122.65,38.39 C122.176664,38.6766681 121.833334,39.1066638 121.62,39.68 L121.58,39.68 C121.433333,39.1199972 121.143336,38.6933348 120.71,38.4 C120.276665,38.1066652 119.740003,37.96 119.1,37.96 C118.499997,37.96 117.983335,38.0666656 117.55,38.28 C117.116664,38.4933344 116.726668,38.8466642 116.38,39.34 L116.34,39.34 L116.34,38.24 L113.7,38.24 Z" id="Lorem-Ipsum"></path>
            <path d="M24.6,68 L29.388,68 L29.388,66.584 L26.328,66.584 L26.328,59.432 L24.6,59.432 L24.6,68 Z M31.548,64.772 C31.548,65.1000016 31.5559999,65.4039986 31.572,65.684 C31.5880001,65.9640014 31.6259997,66.203999 31.686,66.404 C31.7460003,66.604001 31.8359994,66.7599994 31.956,66.872 C32.0760006,66.9840006 32.235999,67.04 32.436,67.04 C32.7720017,67.04 33.0039994,66.8640018 33.132,66.512 C33.2600006,66.1599982 33.324,65.580004 33.324,64.772 C33.324,63.963996 33.2600006,63.3840018 33.132,63.032 C33.0039994,62.6799982 32.7720017,62.504 32.436,62.504 C32.235999,62.504 32.0760006,62.5599994 31.956,62.672 C31.8359994,62.7840006 31.7460003,62.939999 31.686,63.14 C31.6259997,63.340001 31.5880001,63.5799986 31.572,63.86 C31.5559999,64.1400014 31.548,64.4439984 31.548,64.772 Z M29.892,64.772 C29.892,64.2199972 29.9359996,63.7320021 30.024,63.308 C30.1120004,62.8839979 30.255999,62.5300014 30.456,62.246 C30.656001,61.9619986 30.9179984,61.7460007 31.242,61.598 C31.5660016,61.4499993 31.9639976,61.376 32.436,61.376 C32.9320025,61.368 33.3439984,61.4339993 33.672,61.574 C34.0000016,61.7140007 34.259999,61.9279986 34.452,62.216 C34.644001,62.5040014 34.7799996,62.8599979 34.86,63.284 C34.9400004,63.7080021 34.98,64.2039972 34.98,64.772 C34.98,65.3240028 34.9360004,65.8119979 34.848,66.236 C34.7599996,66.6600021 34.616001,67.0139986 34.416,67.298 C34.215999,67.5820014 33.9540016,67.7919993 33.63,67.928 C33.3059984,68.0640007 32.9080024,68.132 32.436,68.132 C31.9399975,68.14 31.5280016,68.0780007 31.2,67.946 C30.8719984,67.8139993 30.612001,67.6060014 30.42,67.322 C30.227999,67.0379986 30.0920004,66.6820021 30.012,66.254 C29.9319996,65.8259979 29.892,65.3320028 29.892,64.772 Z M35.868,61.544 L35.868,68 L37.524,68 L37.524,64.124 C37.524,63.9079989 37.5599996,63.7260007 37.632,63.578 C37.7040004,63.4299993 37.7999994,63.3100005 37.92,63.218 C38.0400006,63.1259995 38.1719993,63.0600002 38.316,63.02 C38.4600007,62.9799998 38.6039993,62.96 38.748,62.96 C38.8360004,62.96 38.9219996,62.962 39.006,62.966 C39.0900004,62.97 39.1759996,62.976 39.264,62.984 L39.264,61.4 C39.2159998,61.392 39.1660003,61.386 39.114,61.382 C39.0619997,61.378 39.0120002,61.376 38.964,61.376 C38.6199983,61.376 38.3280012,61.4699991 38.088,61.658 C37.8479988,61.8460009 37.6440008,62.0959984 37.476,62.408 L37.452,62.408 L37.452,61.544 L35.868,61.544 Z M42.972,64.04 C42.964,63.7919988 42.9480001,63.5740009 42.924,63.386 C42.8999999,63.1979991 42.8580003,63.0380007 42.798,62.906 C42.7379997,62.7739993 42.6540005,62.6740003 42.546,62.606 C42.4379995,62.5379997 42.3000008,62.504 42.132,62.504 C41.9639992,62.504 41.8260005,62.5419996 41.718,62.618 C41.6099995,62.6940004 41.5240003,62.7939994 41.46,62.918 C41.3959997,63.0420006 41.3500001,63.1799992 41.322,63.332 C41.2939999,63.4840008 41.28,63.6359992 41.28,63.788 L41.28,64.04 L42.972,64.04 Z M41.28,65.024 L41.28,65.54 C41.28,65.732001 41.2939999,65.9179991 41.322,66.098 C41.3500001,66.2780009 41.3959997,66.4379993 41.46,66.578 C41.5240003,66.7180007 41.6079995,66.8299996 41.712,66.914 C41.8160005,66.9980004 41.9439992,67.04 42.096,67.04 C42.3760014,67.04 42.5799994,66.940001 42.708,66.74 C42.8360006,66.539999 42.9239998,66.236002 42.972,65.828 L44.46,65.828 C44.4279998,66.5800038 44.2280018,67.151998 43.86,67.544 C43.4919982,67.936002 42.912004,68.132 42.12,68.132 C41.519997,68.132 41.0520017,68.032001 40.716,67.832 C40.3799983,67.631999 40.1320008,67.3680016 39.972,67.04 C39.8119992,66.7119984 39.7140002,66.344002 39.678,65.936 C39.6419998,65.527998 39.624,65.120002 39.624,64.712 C39.624,64.2799978 39.6539997,63.864002 39.714,63.464 C39.7740003,63.063998 39.8939991,62.7080016 40.074,62.396 C40.2540009,62.0839984 40.5119983,61.8360009 40.848,61.652 C41.1840017,61.4679991 41.6319972,61.376 42.192,61.376 C42.6720024,61.376 43.0659985,61.4539992 43.374,61.61 C43.6820015,61.7660008 43.9239991,61.9859986 44.1,62.27 C44.2760009,62.5540014 44.3959997,62.897998 44.46,63.302 C44.5240003,63.706002 44.556,64.1559975 44.556,64.652 L44.556,65.024 L41.28,65.024 Z M45.42,61.544 L45.42,68 L47.076,68 L47.076,63.752 C47.076,63.3679981 47.1539992,63.0880009 47.31,62.912 C47.4660008,62.7359991 47.6759987,62.648 47.94,62.648 C48.1720012,62.648 48.3379995,62.7199993 48.438,62.864 C48.5380005,63.0080007 48.588,63.2159986 48.588,63.488 L48.588,68 L50.244,68 L50.244,63.752 C50.244,63.3679981 50.3219992,63.0880009 50.478,62.912 C50.6340008,62.7359991 50.8439987,62.648 51.108,62.648 C51.3400012,62.648 51.5059995,62.7199993 51.606,62.864 C51.7060005,63.0080007 51.756,63.2159986 51.756,63.488 L51.756,68 L53.412,68 L53.412,63.308 C53.412,62.6839969 53.2820013,62.2060017 53.022,61.874 C52.7619987,61.5419983 52.3560028,61.376 51.804,61.376 C51.411998,61.376 51.0740014,61.4619991 50.79,61.634 C50.5059986,61.8060009 50.3000006,62.0639983 50.172,62.408 L50.148,62.408 C50.0599996,62.0719983 49.8860013,61.8160009 49.626,61.64 C49.3659987,61.4639991 49.0440019,61.376 48.66,61.376 C48.2999982,61.376 47.9900013,61.4399994 47.73,61.568 C47.4699987,61.6960006 47.236001,61.9079985 47.028,62.204 L47.004,62.204 L47.004,61.544 L45.42,61.544 Z M57.456,59.336 L57.456,60.752 L59.112,60.752 L59.112,59.336 L57.456,59.336 Z M57.456,61.544 L57.456,68 L59.112,68 L59.112,61.544 L57.456,61.544 Z M60.276,61.544 L61.86,61.544 L61.86,62.228 L61.884,62.228 C62.0680009,61.9239985 62.2739989,61.7060007 62.502,61.574 C62.7300011,61.4419993 63.0119983,61.376 63.348,61.376 C64.0280034,61.376 64.5279984,61.6419973 64.848,62.174 C65.1680016,62.7060027 65.328,63.571994 65.328,64.772 C65.328,65.972006 65.1680016,66.8319974 64.848,67.352 C64.5279984,67.8720026 64.0280034,68.132 63.348,68.132 C63.0359984,68.132 62.7700011,68.0740006 62.55,67.958 C62.3299989,67.8419994 62.1320009,67.6560013 61.956,67.4 L61.932,67.4 L61.932,70.076 L60.276,70.076 L60.276,61.544 Z M61.932,64.772 C61.932,65.4760035 61.9859995,66.0059982 62.094,66.362 C62.2020005,66.7180018 62.4399982,66.896 62.808,66.896 C63.1680018,66.896 63.4019995,66.7180018 63.51,66.362 C63.6180005,66.0059982 63.672,65.4760035 63.672,64.772 C63.672,64.0679965 63.6180005,63.5380018 63.51,63.182 C63.4019995,62.8259982 63.1680018,62.648 62.808,62.648 C62.4399982,62.648 62.2020005,62.8259982 62.094,63.182 C61.9859995,63.5380018 61.932,64.0679965 61.932,64.772 Z M67.488,65.888 L66,65.888 L66,66.116 C66,66.4280016 66.0359996,66.7099987 66.108,66.962 C66.1800004,67.2140013 66.3059991,67.4279991 66.486,67.604 C66.6660009,67.7800009 66.9099985,67.9119996 67.218,68 C67.5260015,68.0880004 67.9119977,68.132 68.376,68.132 C68.7280018,68.132 69.0499985,68.0960004 69.342,68.024 C69.6340015,67.9519996 69.8859989,67.8320008 70.098,67.664 C70.3100011,67.4959992 70.4759994,67.2860013 70.596,67.034 C70.7160006,66.7819987 70.776,66.4840017 70.776,66.14 C70.776,65.6519976 70.6680011,65.2660014 70.452,64.982 C70.2359989,64.6979986 69.8680026,64.4680009 69.348,64.292 L68.352,63.956 C68.0719986,63.8679996 67.8820005,63.7600006 67.782,63.632 C67.6819995,63.5039994 67.632,63.3600008 67.632,63.2 C67.632,62.9679988 67.7099992,62.7940006 67.866,62.678 C68.0220008,62.5619994 68.203999,62.504 68.412,62.504 C68.6840014,62.504 68.8739995,62.5819992 68.982,62.738 C69.0900005,62.8940008 69.144,63.1399983 69.144,63.476 L70.632,63.476 L70.632,63.212 C70.632,62.6279971 70.4520018,62.1760016 70.092,61.856 C69.7319982,61.5359984 69.1760038,61.376 68.424,61.376 C67.9999979,61.376 67.6380015,61.4279995 67.338,61.532 C67.0379985,61.6360005 66.792001,61.7759991 66.6,61.952 C66.407999,62.1280009 66.2680004,62.3339988 66.18,62.57 C66.0919996,62.8060012 66.048,63.0559987 66.048,63.32 C66.048,63.7760023 66.1639988,64.1499985 66.396,64.442 C66.6280012,64.7340015 66.9719977,64.9599992 67.428,65.12 L68.592,65.54 C68.7520008,65.6040003 68.8919994,65.6899995 69.012,65.798 C69.1320006,65.9060005 69.192,66.063999 69.192,66.272 C69.192,66.5280013 69.1160008,66.7199994 68.964,66.848 C68.8119992,66.9760006 68.6080013,67.04 68.352,67.04 C68.0719986,67.04 67.8580007,66.9540009 67.71,66.782 C67.5619993,66.6099991 67.488,66.3840014 67.488,66.104 L67.488,65.888 Z M74.916,67.244 L74.916,68 L76.5,68 L76.5,61.544 L74.844,61.544 L74.844,65.828 C74.844,66.5400036 74.5520029,66.896 73.968,66.896 C73.7199988,66.896 73.5400006,66.8300007 73.428,66.698 C73.3159994,66.5659993 73.26,66.3320017 73.26,65.996 L73.26,61.544 L71.604,61.544 L71.604,66.332 C71.604,66.9800032 71.7459986,67.4419986 72.03,67.718 C72.3140014,67.9940014 72.7199974,68.132 73.248,68.132 C73.6080018,68.132 73.9279986,68.0640007 74.208,67.928 C74.4880014,67.7919993 74.7159991,67.5640016 74.892,67.244 L74.916,67.244 Z M77.604,61.544 L77.604,68 L79.26,68 L79.26,63.752 C79.26,63.3679981 79.3379992,63.0880009 79.494,62.912 C79.6500008,62.7359991 79.8599987,62.648 80.124,62.648 C80.3560012,62.648 80.5219995,62.7199993 80.622,62.864 C80.7220005,63.0080007 80.772,63.2159986 80.772,63.488 L80.772,68 L82.428,68 L82.428,63.752 C82.428,63.3679981 82.5059992,63.0880009 82.662,62.912 C82.8180008,62.7359991 83.0279987,62.648 83.292,62.648 C83.5240012,62.648 83.6899995,62.7199993 83.79,62.864 C83.8900005,63.0080007 83.94,63.2159986 83.94,63.488 L83.94,68 L85.596,68 L85.596,63.308 C85.596,62.6839969 85.4660013,62.2060017 85.206,61.874 C84.9459987,61.5419983 84.5400028,61.376 83.988,61.376 C83.595998,61.376 83.2580014,61.4619991 82.974,61.634 C82.6899986,61.8060009 82.4840006,62.0639983 82.356,62.408 L82.332,62.408 C82.2439996,62.0719983 82.0700013,61.8160009 81.81,61.64 C81.5499987,61.4639991 81.2280019,61.376 80.844,61.376 C80.4839982,61.376 80.1740013,61.4399994 79.914,61.568 C79.6539987,61.6960006 79.420001,61.9079985 79.212,62.204 L79.188,62.204 L79.188,61.544 L77.604,61.544 Z M92.592,64.772 C92.4799994,64.8600004 92.3600006,64.9299997 92.232,64.982 C92.1039994,65.0340003 91.9880005,65.0719999 91.884,65.096 C91.5479983,65.1680004 91.3080007,65.2879992 91.164,65.456 C91.0199993,65.6240008 90.948,65.8519986 90.948,66.14 C90.948,66.3880012 90.9959995,66.5999991 91.092,66.776 C91.1880005,66.9520009 91.3479989,67.04 91.572,67.04 C91.6840006,67.04 91.7999994,67.0220002 91.92,66.986 C92.0400006,66.9499998 92.1499995,66.8920004 92.25,66.812 C92.3500005,66.7319996 92.4319997,66.6280006 92.496,66.5 C92.5600003,66.3719994 92.592,66.2200009 92.592,66.044 L92.592,64.772 Z M89.568,63.524 L89.568,63.368 C89.568,62.9919981 89.6279994,62.6780013 89.748,62.426 C89.8680006,62.1739987 90.029999,61.9700008 90.234,61.814 C90.438001,61.6579992 90.6779986,61.5460003 90.954,61.478 C91.2300014,61.4099997 91.5239984,61.376 91.836,61.376 C92.3320025,61.376 92.7319985,61.4239995 93.036,61.52 C93.3400015,61.6160005 93.5759992,61.7519991 93.744,61.928 C93.9120008,62.1040009 94.0259997,62.3139988 94.086,62.558 C94.1460003,62.8020012 94.176,63.0679986 94.176,63.356 L94.176,66.752 C94.176,67.0560015 94.1899999,67.2919992 94.218,67.46 C94.2460001,67.6280008 94.2999996,67.807999 94.38,68 L92.796,68 C92.7399997,67.8959995 92.6980001,67.7860006 92.67,67.67 C92.6419999,67.5539994 92.6160001,67.4400006 92.592,67.328 L92.568,67.328 C92.375999,67.6640017 92.1540013,67.8819995 91.902,67.982 C91.6499987,68.0820005 91.324002,68.132 90.924,68.132 C90.6359986,68.132 90.392001,68.0820005 90.192,67.982 C89.991999,67.8819995 89.8320006,67.7440009 89.712,67.568 C89.5919994,67.3919991 89.5040003,67.1940011 89.448,66.974 C89.3919997,66.7539989 89.364,66.5360011 89.364,66.32 C89.364,66.0159985 89.3959997,65.7540011 89.46,65.534 C89.5240003,65.3139989 89.6219993,65.1260008 89.754,64.97 C89.8860007,64.8139992 90.053999,64.6840005 90.258,64.58 C90.462001,64.4759995 90.7079986,64.3840004 90.996,64.304 L91.932,64.052 C92.1800012,63.9879997 92.3519995,63.9000006 92.448,63.788 C92.5440005,63.6759994 92.592,63.5120011 92.592,63.296 C92.592,63.0479988 92.5340006,62.8540007 92.418,62.714 C92.3019994,62.5739993 92.1040014,62.504 91.824,62.504 C91.5679987,62.504 91.3760006,62.5799992 91.248,62.732 C91.1199994,62.8840008 91.056,63.0879987 91.056,63.344 L91.056,63.524 L89.568,63.524 Z M95.352,61.544 L95.352,68 L97.008,68 L97.008,63.752 C97.008,63.3679981 97.0859992,63.0880009 97.242,62.912 C97.3980008,62.7359991 97.6079987,62.648 97.872,62.648 C98.1040012,62.648 98.2699995,62.7199993 98.37,62.864 C98.4700005,63.0080007 98.52,63.2159986 98.52,63.488 L98.52,68 L100.176,68 L100.176,63.752 C100.176,63.3679981 100.253999,63.0880009 100.41,62.912 C100.566001,62.7359991 100.775999,62.648 101.04,62.648 C101.272001,62.648 101.438,62.7199993 101.538,62.864 C101.638001,63.0080007 101.688,63.2159986 101.688,63.488 L101.688,68 L103.344,68 L103.344,63.308 C103.344,62.6839969 103.214001,62.2060017 102.954,61.874 C102.693999,61.5419983 102.288003,61.376 101.736,61.376 C101.343998,61.376 101.006001,61.4619991 100.722,61.634 C100.437999,61.8060009 100.232001,62.0639983 100.104,62.408 L100.08,62.408 C99.9919996,62.0719983 99.8180013,61.8160009 99.558,61.64 C99.2979987,61.4639991 98.9760019,61.376 98.592,61.376 C98.2319982,61.376 97.9220013,61.4399994 97.662,61.568 C97.4019987,61.6960006 97.168001,61.9079985 96.96,62.204 L96.936,62.204 L96.936,61.544 L95.352,61.544 Z M107.556,64.04 C107.548,63.7919988 107.532,63.5740009 107.508,63.386 C107.484,63.1979991 107.442,63.0380007 107.382,62.906 C107.322,62.7739993 107.238001,62.6740003 107.13,62.606 C107.021999,62.5379997 106.884001,62.504 106.716,62.504 C106.547999,62.504 106.410001,62.5419996 106.302,62.618 C106.193999,62.6940004 106.108,62.7939994 106.044,62.918 C105.98,63.0420006 105.934,63.1799992 105.906,63.332 C105.878,63.4840008 105.864,63.6359992 105.864,63.788 L105.864,64.04 L107.556,64.04 Z M105.864,65.024 L105.864,65.54 C105.864,65.732001 105.878,65.9179991 105.906,66.098 C105.934,66.2780009 105.98,66.4379993 106.044,66.578 C106.108,66.7180007 106.191999,66.8299996 106.296,66.914 C106.400001,66.9980004 106.527999,67.04 106.68,67.04 C106.960001,67.04 107.163999,66.940001 107.292,66.74 C107.420001,66.539999 107.508,66.236002 107.556,65.828 L109.044,65.828 C109.012,66.5800038 108.812002,67.151998 108.444,67.544 C108.075998,67.936002 107.496004,68.132 106.704,68.132 C106.103997,68.132 105.636002,68.032001 105.3,67.832 C104.963998,67.631999 104.716001,67.3680016 104.556,67.04 C104.395999,66.7119984 104.298,66.344002 104.262,65.936 C104.226,65.527998 104.208,65.120002 104.208,64.712 C104.208,64.2799978 104.238,63.864002 104.298,63.464 C104.358,63.063998 104.477999,62.7080016 104.658,62.396 C104.838001,62.0839984 105.095998,61.8360009 105.432,61.652 C105.768002,61.4679991 106.215997,61.376 106.776,61.376 C107.256002,61.376 107.649998,61.4539992 107.958,61.61 C108.266002,61.7660008 108.507999,61.9859986 108.684,62.27 C108.860001,62.5540014 108.98,62.897998 109.044,63.302 C109.108,63.706002 109.14,64.1559975 109.14,64.652 L109.14,65.024 L105.864,65.024 Z M110.364,59.696 L110.364,61.544 L109.524,61.544 L109.524,62.672 L110.364,62.672 L110.364,66.368 C110.364,66.6960016 110.384,66.9679989 110.424,67.184 C110.464,67.4000011 110.537999,67.5739993 110.646,67.706 C110.754001,67.8380007 110.909999,67.9259998 111.114,67.97 C111.318001,68.0140002 111.579998,68.036 111.9,68.036 C112.092001,68.036 112.273999,68.0300001 112.446,68.018 C112.618001,68.0059999 112.795999,68 112.98,68 L112.98,66.848 C112.924,66.856 112.864,66.862 112.8,66.866 C112.736,66.87 112.672,66.872 112.608,66.872 C112.367999,66.872 112.21,66.8180005 112.134,66.71 C112.058,66.6019995 112.02,66.4200013 112.02,66.164 L112.02,62.672 L112.98,62.672 L112.98,61.544 L112.02,61.544 L112.02,59.696 L110.364,59.696 Z" id="Lorem-ipsum-amet,"></path>
        </g>
    </g>
</svg>