<?xml version="1.0" encoding="UTF-8"?>
<svg width="150px" height="100px" viewBox="0 0 150 100" version="1.1" xmlns="http://www.w3.org/2000/svg" xmlns:xlink="http://www.w3.org/1999/xlink">
    <!-- Generator: Sketch 47.1 (45422) - http://www.bohemiancoding.com/sketch -->
    <title>iconlist_social</title>
    <desc>Created with Sketch.</desc>
    <defs></defs>
    <g id="Page-1" stroke="none" stroke-width="1" fill="none" fill-rule="evenodd">
        <g id="iconlist_social">
            <g id="circle-social-facebook-outline-stroke" transform="translate(36.000000, 39.000000)">
                <path d="M11,22 C17.0751325,22 22,17.0751325 22,11 C22,4.92486745 17.0751325,0 11,0 C4.92486745,0 0,4.92486745 0,11 C0,17.0751325 4.92486745,22 11,22 Z M9.33614878,17.3485814 L9.33614878,10.9996191 L8.04587261,10.9996191 L8.04587261,8.89509733 L9.33614878,8.89509733 L9.33614878,7.62240835 C9.33614878,5.90576881 9.8493981,4.66789363 11.7289708,4.66789363 L13.9649985,4.66789363 L13.9649985,6.76809465 L12.3904933,6.76809465 C11.6020279,6.76809465 11.4223537,7.29203798 11.4223537,7.84071235 L11.4223537,8.89509695 L13.8487885,8.89509714 L13.5175967,10.9996191 L11.4223537,10.9996191 L11.4223537,17.3485812 L9.33614878,17.3485814 Z" id="circle-social_facebook_outline_stroke" fill="#FF6B6B" fill-rule="nonzero"></path>
                <g id="circle-social-google-plus-outline-stroke" transform="translate(29.000000, 0.000000)">
                    <path d="M14.3846154,11.4230769 L12.6923077,11.4230769 L12.6923077,10.5769231 L14.3846154,10.5769231 L14.3846154,8.88461538 L15.2307692,8.88461538 L15.2307692,10.5769231 L16.9230769,10.5769231 L16.9230769,11.4230769 L15.2307692,11.4230769 L15.2307692,13.1153846 L14.3846154,13.1153846 L14.3846154,11.4230769 Z M11,22 C17.0751325,22 22,17.0751325 22,11 C22,4.92486745 17.0751325,0 11,0 C4.92486745,0 0,4.92486745 0,11 C0,17.0751325 4.92486745,22 11,22 Z M10.9092741,6.06274154 C11.2686856,6.35999568 12.0193899,6.98523858 12.0193899,8.17391111 C12.0193899,9.33104625 11.3626096,9.87830581 10.7060587,10.394028 C10.5028433,10.5973581 10.2679758,10.8163995 10.2679758,11.1604437 C10.2679758,11.5044878 10.5028433,11.6922212 10.6744067,11.8327059 L11.2376069,12.2702154 C11.9258099,12.8486683 12.5509381,13.3806752 12.5509381,14.459827 C12.5509381,15.9292396 11.1279715,17.4149369 8.43846375,17.4149369 C6.17155687,17.4149369 5.07692308,16.3361291 5.07692308,15.1787646 C5.07692308,14.6157937 5.35846587,13.8185287 6.28130695,13.2710398 C7.25047931,12.6767609 8.56426923,12.5992363 9.26749546,12.5518729 C9.0485687,12.2702154 8.79844861,11.9728466 8.79844861,11.4886618 C8.79844861,11.2228303 8.87666131,11.0661756 8.95487402,10.8786715 C8.7825079,10.8941535 8.61094455,10.9102089 8.45428978,10.9102089 C6.79714381,10.9102089 5.85893542,9.67440231 5.85893542,8.45510986 C5.85893542,7.73617227 6.18715354,6.93821921 6.85953048,6.35976632 C7.75094887,5.62511739 8.81404528,5.5 9.65832961,5.5 L12.8792709,5.5 L11.8785612,6.06251218 L10.9092741,6.06251218 L10.9092741,6.06274154 Z M10.2528379,10.0348459 C10.61202,9.67451699 10.6434427,9.17450617 10.6434427,8.89284869 C10.6434427,7.76748029 9.97118042,6.01595154 8.67321654,6.01595154 C8.26667104,6.01595154 7.8289322,6.21939631 7.57846807,6.53247648 C7.3127513,6.86080928 7.23430924,7.28249272 7.23430924,7.6891529 C7.23430924,8.73653797 7.84418483,10.4725847 9.18893872,10.4725847 C9.57988755,10.47247 10.0021444,10.2847366 10.2528379,10.0348459 Z M9.79892899,13.0054377 C9.6738116,12.989497 9.5955989,12.989497 9.43951754,12.989497 C9.2986888,12.989497 8.4541751,13.0209197 7.79750951,13.2400758 C7.45358004,13.3651932 6.4528703,13.7400867 6.4528703,14.8504318 C6.4528703,15.9605476 7.53167806,16.7576979 9.20487943,16.7576979 C10.7060587,16.7576979 11.5033237,16.0387603 11.5033237,15.0694733 C11.5033237,14.2717496 10.9874868,13.8499514 9.79892899,13.0054377 Z" id="circle-social_google-plus_outline_stroke" fill="#FF6B6B" fill-rule="nonzero"></path>
                    <g id="circle-social-twitter-outline-stroke" transform="translate(28.000000, 0.000000)">
                        <path d="M11,22 C17.0751325,22 22,17.0751325 22,11 C22,4.92486745 17.0751325,0 11,0 C4.92486745,0 0,4.92486745 0,11 C0,17.0751325 4.92486745,22 11,22 Z" id="circle-social_twitter_outline_stroke" fill="#FF6B6B" fill-rule="nonzero"></path>
                        <path d="M15.0524508,6.76012123 C14.6091677,6.25614055 13.9775308,5.93503684 13.2784892,5.92340138 C11.93632,5.90106113 10.8480731,7.03520524 10.8480731,8.45647588 C10.8480731,8.65818843 10.8695738,8.85488757 10.9110354,9.04371349 C8.89114769,8.91269594 7.10030538,7.86088255 5.90165231,6.27539799 C5.69244923,6.65531596 5.57256615,7.09935699 5.57256615,7.5750218 C5.57256615,8.47549576 6.00163385,9.27465999 6.65376462,9.74651971 C6.25537846,9.72893164 5.88062538,9.60833053 5.55296077,9.41048241 C5.55272385,9.42129649 5.55272385,9.43211314 5.55272385,9.44311957 C5.55272385,10.7006349 6.39048385,11.7555928 7.50230462,12.001344 C7.29837308,12.0591306 7.08366154,12.0893727 6.86202,12.0879029 C6.70541385,12.0868645 6.55313154,12.0694977 6.40475846,12.0383149 C6.71400231,13.0696051 7.61152615,13.8221476 8.67507385,13.8470303 C7.84329615,14.5374887 6.79538538,14.9487042 5.65667385,14.9463552 C5.46050154,14.9459506 5.26705385,14.9332744 5.07692308,14.9088865 C6.15249462,15.6468818 7.42998385,16.0765627 8.80247923,16.0769228 C13.2728031,16.0780957 15.7174346,12.1878206 15.7174346,8.81348185 C15.7174346,8.70277332 15.7150062,8.59265701 15.7103862,8.48307238 C16.1852392,8.12924437 16.5972485,7.68562269 16.9230769,7.17904697 C16.4872569,7.37550592 16.0188008,7.50598516 15.5272446,7.56071723 C16.0289885,7.25192057 16.4144031,6.75770189 16.5958269,6.16504475 C16.1261862,6.44984717 15.6060808,6.65408805 15.0524508,6.76012123 Z" id="circle-social_twitter_outline_stroke-path" fill="#FFFFFF"></path>
                    </g>
                </g>
            </g>
        </g>
    </g>
</svg>