<?xml version="1.0" encoding="UTF-8"?>
<svg width="150px" height="100px" viewBox="0 0 150 100" version="1.1" xmlns="http://www.w3.org/2000/svg" xmlns:xlink="http://www.w3.org/1999/xlink">
    <!-- Generator: Sketch 47.1 (45422) - http://www.bohemiancoding.com/sketch -->
    <title>pagelist_footer</title>
    <desc>Created with Sketch.</desc>
    <defs></defs>
    <g id="Page-1" stroke="none" stroke-width="1" fill="none" fill-rule="evenodd">
        <g id="pagelist_footer" fill="#FF6B6B">
            <path d="M34.328,23.308 L35.096,23.308 C35.4400017,23.308 35.7179989,23.204001 35.93,22.996 C36.1420011,22.787999 36.248,22.4640022 36.248,22.024 C36.248,21.5919978 36.1560009,21.2640011 35.972,21.04 C35.7879991,20.8159989 35.4800022,20.704 35.048,20.704 L34.328,20.704 L34.328,23.308 Z M32.6,19.432 L35.624,19.432 C36.0640022,19.432 36.4339985,19.5059993 36.734,19.654 C37.0340015,19.8020007 37.2759991,19.9959988 37.46,20.236 C37.6440009,20.4760012 37.7759996,20.7499985 37.856,21.058 C37.9360004,21.3660015 37.976,21.6799984 37.976,22 C37.976,22.4400022 37.9100007,22.8239984 37.778,23.152 C37.6459993,23.4800016 37.4620012,23.747999 37.226,23.956 C36.9899988,24.164001 36.7040017,24.3199995 36.368,24.424 C36.0319983,24.5280005 35.660002,24.58 35.252,24.58 L34.328,24.58 L34.328,28 L32.6,28 L32.6,19.432 Z M41.792,24.772 C41.6799994,24.8600004 41.5600006,24.9299997 41.432,24.982 C41.3039994,25.0340003 41.1880005,25.0719999 41.084,25.096 C40.7479983,25.1680004 40.5080007,25.2879992 40.364,25.456 C40.2199993,25.6240008 40.148,25.8519986 40.148,26.14 C40.148,26.3880012 40.1959995,26.5999991 40.292,26.776 C40.3880005,26.9520009 40.5479989,27.04 40.772,27.04 C40.8840006,27.04 40.9999994,27.0220002 41.12,26.986 C41.2400006,26.9499998 41.3499995,26.8920004 41.45,26.812 C41.5500005,26.7319996 41.6319997,26.6280006 41.696,26.5 C41.7600003,26.3719994 41.792,26.2200009 41.792,26.044 L41.792,24.772 Z M38.768,23.524 L38.768,23.368 C38.768,22.9919981 38.8279994,22.6780013 38.948,22.426 C39.0680006,22.1739987 39.229999,21.9700008 39.434,21.814 C39.638001,21.6579992 39.8779986,21.5460003 40.154,21.478 C40.4300014,21.4099997 40.7239984,21.376 41.036,21.376 C41.5320025,21.376 41.9319985,21.4239995 42.236,21.52 C42.5400015,21.6160005 42.7759992,21.7519991 42.944,21.928 C43.1120008,22.1040009 43.2259997,22.3139988 43.286,22.558 C43.3460003,22.8020012 43.376,23.0679986 43.376,23.356 L43.376,26.752 C43.376,27.0560015 43.3899999,27.2919992 43.418,27.46 C43.4460001,27.6280008 43.4999996,27.807999 43.58,28 L41.996,28 C41.9399997,27.8959995 41.8980001,27.7860006 41.87,27.67 C41.8419999,27.5539994 41.8160001,27.4400006 41.792,27.328 L41.768,27.328 C41.575999,27.6640017 41.3540013,27.8819995 41.102,27.982 C40.8499987,28.0820005 40.524002,28.132 40.124,28.132 C39.8359986,28.132 39.592001,28.0820005 39.392,27.982 C39.191999,27.8819995 39.0320006,27.7440009 38.912,27.568 C38.7919994,27.3919991 38.7040003,27.1940011 38.648,26.974 C38.5919997,26.7539989 38.564,26.5360011 38.564,26.32 C38.564,26.0159985 38.5959997,25.7540011 38.66,25.534 C38.7240003,25.3139989 38.8219993,25.1260008 38.954,24.97 C39.0860007,24.8139992 39.253999,24.6840005 39.458,24.58 C39.662001,24.4759995 39.9079986,24.3840004 40.196,24.304 L41.132,24.052 C41.3800012,23.9879997 41.5519995,23.9000006 41.648,23.788 C41.7440005,23.6759994 41.792,23.5120011 41.792,23.296 C41.792,23.0479988 41.7340006,22.8540007 41.618,22.714 C41.5019994,22.5739993 41.3040014,22.504 41.024,22.504 C40.7679987,22.504 40.5760006,22.5799992 40.448,22.732 C40.3199994,22.8840008 40.256,23.0879987 40.256,23.344 L40.256,23.524 L38.768,23.524 Z M46.076,24.976 C46.076,25.2000011 46.0859999,25.411999 46.106,25.612 C46.1260001,25.812001 46.1659997,25.9899992 46.226,26.146 C46.2860003,26.3020008 46.3699995,26.4259995 46.478,26.518 C46.5860005,26.6100005 46.7279991,26.656 46.904,26.656 C47.0800009,26.656 47.2259994,26.6100005 47.342,26.518 C47.4580006,26.4259995 47.5499997,26.3000008 47.618,26.14 C47.6860003,25.9799992 47.7339999,25.7860011 47.762,25.558 C47.7900001,25.3299989 47.804,25.0800014 47.804,24.808 C47.804,24.0239961 47.7420006,23.4680016 47.618,23.14 C47.4939994,22.8119984 47.2680016,22.648 46.94,22.648 C46.7559991,22.648 46.6080006,22.6879996 46.496,22.768 C46.3839994,22.8480004 46.2960003,22.9779991 46.232,23.158 C46.1679997,23.3380009 46.1260001,23.5779985 46.106,23.878 C46.0859999,24.1780015 46.076,24.5439978 46.076,24.976 Z M49.388,21.544 L49.388,27.676 C49.388,28.5080042 49.1820021,29.1319979 48.77,29.548 C48.3579979,29.9640021 47.6680048,30.172 46.7,30.172 C45.9959965,30.172 45.4540019,30.0220015 45.074,29.722 C44.6939981,29.4219985 44.504,28.9960028 44.504,28.444 L46.088,28.444 C46.088,28.652001 46.1719992,28.8159994 46.34,28.936 C46.4200004,28.9920003 46.5059995,29.0359998 46.598,29.068 C46.6900005,29.1000002 46.7879995,29.116 46.892,29.116 C47.2280017,29.116 47.4639993,29.0080011 47.6,28.792 C47.7360007,28.5759989 47.804,28.3080016 47.804,27.988 L47.804,27.136 L47.78,27.136 C47.6119992,27.3760012 47.4060012,27.5679993 47.162,27.712 C46.9179988,27.8560007 46.6640013,27.928 46.4,27.928 C45.7439967,27.928 45.2500017,27.6780025 44.918,27.178 C44.5859983,26.6779975 44.42,25.8400059 44.42,24.664 C44.42,24.2879981 44.4419998,23.904002 44.486,23.512 C44.5300002,23.119998 44.6219993,22.7660016 44.762,22.45 C44.9020007,22.1339984 45.1059987,21.876001 45.374,21.676 C45.6420013,21.475999 45.9999978,21.376 46.448,21.376 C46.6800012,21.376 46.9199988,21.4399994 47.168,21.568 C47.4160012,21.6960006 47.6199992,21.9279983 47.78,22.264 L47.804,22.264 L47.804,21.544 L49.388,21.544 Z M53.66,24.04 C53.652,23.7919988 53.6360001,23.5740009 53.612,23.386 C53.5879999,23.1979991 53.5460003,23.0380007 53.486,22.906 C53.4259997,22.7739993 53.3420005,22.6740003 53.234,22.606 C53.1259995,22.5379997 52.9880008,22.504 52.82,22.504 C52.6519992,22.504 52.5140005,22.5419996 52.406,22.618 C52.2979995,22.6940004 52.2120003,22.7939994 52.148,22.918 C52.0839997,23.0420006 52.0380001,23.1799992 52.01,23.332 C51.9819999,23.4840008 51.968,23.6359992 51.968,23.788 L51.968,24.04 L53.66,24.04 Z M51.968,25.024 L51.968,25.54 C51.968,25.732001 51.9819999,25.9179991 52.01,26.098 C52.0380001,26.2780009 52.0839997,26.4379993 52.148,26.578 C52.2120003,26.7180007 52.2959995,26.8299996 52.4,26.914 C52.5040005,26.9980004 52.6319992,27.04 52.784,27.04 C53.0640014,27.04 53.2679994,26.940001 53.396,26.74 C53.5240006,26.539999 53.6119998,26.236002 53.66,25.828 L55.148,25.828 C55.1159998,26.5800038 54.9160018,27.151998 54.548,27.544 C54.1799982,27.936002 53.600004,28.132 52.808,28.132 C52.207997,28.132 51.7400017,28.032001 51.404,27.832 C51.0679983,27.631999 50.8200008,27.3680016 50.66,27.04 C50.4999992,26.7119984 50.4020002,26.344002 50.366,25.936 C50.3299998,25.527998 50.312,25.120002 50.312,24.712 C50.312,24.2799978 50.3419997,23.864002 50.402,23.464 C50.4620003,23.063998 50.5819991,22.7080016 50.762,22.396 C50.9420009,22.0839984 51.1999983,21.8360009 51.536,21.652 C51.8720017,21.4679991 52.3199972,21.376 52.88,21.376 C53.3600024,21.376 53.7539985,21.4539992 54.062,21.61 C54.3700015,21.7660008 54.6119991,21.9859986 54.788,22.27 C54.9640009,22.5540014 55.0839997,22.897998 55.148,23.302 C55.2120003,23.706002 55.244,24.1559975 55.244,24.652 L55.244,25.024 L51.968,25.024 Z M56.108,21.544 L56.108,28 L57.764,28 L57.764,23.716 C57.764,23.0039964 58.0559971,22.648 58.64,22.648 C58.8880012,22.648 59.0679994,22.7139993 59.18,22.846 C59.2920006,22.9780007 59.348,23.2119983 59.348,23.548 L59.348,28 L61.004,28 L61.004,23.212 C61.004,22.5639968 60.8620014,22.0960014 60.578,21.808 C60.2939986,21.5199986 59.8880026,21.376 59.36,21.376 C58.9999982,21.376 58.6800014,21.4499993 58.4,21.598 C58.1199986,21.7460007 57.8920009,21.9799984 57.716,22.3 L57.692,22.3 L57.692,21.544 L56.108,21.544 Z M65.12,24.772 C65.0079994,24.8600004 64.8880006,24.9299997 64.76,24.982 C64.6319994,25.0340003 64.5160005,25.0719999 64.412,25.096 C64.0759983,25.1680004 63.8360007,25.2879992 63.692,25.456 C63.5479993,25.6240008 63.476,25.8519986 63.476,26.14 C63.476,26.3880012 63.5239995,26.5999991 63.62,26.776 C63.7160005,26.9520009 63.8759989,27.04 64.1,27.04 C64.2120006,27.04 64.3279994,27.0220002 64.448,26.986 C64.5680006,26.9499998 64.6779995,26.8920004 64.778,26.812 C64.8780005,26.7319996 64.9599997,26.6280006 65.024,26.5 C65.0880003,26.3719994 65.12,26.2200009 65.12,26.044 L65.12,24.772 Z M62.096,23.524 L62.096,23.368 C62.096,22.9919981 62.1559994,22.6780013 62.276,22.426 C62.3960006,22.1739987 62.557999,21.9700008 62.762,21.814 C62.966001,21.6579992 63.2059986,21.5460003 63.482,21.478 C63.7580014,21.4099997 64.0519984,21.376 64.364,21.376 C64.8600025,21.376 65.2599985,21.4239995 65.564,21.52 C65.8680015,21.6160005 66.1039992,21.7519991 66.272,21.928 C66.4400008,22.1040009 66.5539997,22.3139988 66.614,22.558 C66.6740003,22.8020012 66.704,23.0679986 66.704,23.356 L66.704,26.752 C66.704,27.0560015 66.7179999,27.2919992 66.746,27.46 C66.7740001,27.6280008 66.8279996,27.807999 66.908,28 L65.324,28 C65.2679997,27.8959995 65.2260001,27.7860006 65.198,27.67 C65.1699999,27.5539994 65.1440001,27.4400006 65.12,27.328 L65.096,27.328 C64.903999,27.6640017 64.6820013,27.8819995 64.43,27.982 C64.1779987,28.0820005 63.852002,28.132 63.452,28.132 C63.1639986,28.132 62.920001,28.0820005 62.72,27.982 C62.519999,27.8819995 62.3600006,27.7440009 62.24,27.568 C62.1199994,27.3919991 62.0320003,27.1940011 61.976,26.974 C61.9199997,26.7539989 61.892,26.5360011 61.892,26.32 C61.892,26.0159985 61.9239997,25.7540011 61.988,25.534 C62.0520003,25.3139989 62.1499993,25.1260008 62.282,24.97 C62.4140007,24.8139992 62.581999,24.6840005 62.786,24.58 C62.990001,24.4759995 63.2359986,24.3840004 63.524,24.304 L64.46,24.052 C64.7080012,23.9879997 64.8799995,23.9000006 64.976,23.788 C65.0720005,23.6759994 65.12,23.5120011 65.12,23.296 C65.12,23.0479988 65.0620006,22.8540007 64.946,22.714 C64.8299994,22.5739993 64.6320014,22.504 64.352,22.504 C64.0959987,22.504 63.9040006,22.5799992 63.776,22.732 C63.6479994,22.8840008 63.584,23.0879987 63.584,23.344 L63.584,23.524 L62.096,23.524 Z M67.88,21.544 L67.88,28 L69.536,28 L69.536,23.752 C69.536,23.3679981 69.6139992,23.0880009 69.77,22.912 C69.9260008,22.7359991 70.1359987,22.648 70.4,22.648 C70.6320012,22.648 70.7979995,22.7199993 70.898,22.864 C70.9980005,23.0080007 71.048,23.2159986 71.048,23.488 L71.048,28 L72.704,28 L72.704,23.752 C72.704,23.3679981 72.7819992,23.0880009 72.938,22.912 C73.0940008,22.7359991 73.3039987,22.648 73.568,22.648 C73.8000012,22.648 73.9659995,22.7199993 74.066,22.864 C74.1660005,23.0080007 74.216,23.2159986 74.216,23.488 L74.216,28 L75.872,28 L75.872,23.308 C75.872,22.6839969 75.7420013,22.2060017 75.482,21.874 C75.2219987,21.5419983 74.8160028,21.376 74.264,21.376 C73.871998,21.376 73.5340014,21.4619991 73.25,21.634 C72.9659986,21.8060009 72.7600006,22.0639983 72.632,22.408 L72.608,22.408 C72.5199996,22.0719983 72.3460013,21.8160009 72.086,21.64 C71.8259987,21.4639991 71.5040019,21.376 71.12,21.376 C70.7599982,21.376 70.4500013,21.4399994 70.19,21.568 C69.9299987,21.6960006 69.696001,21.9079985 69.488,22.204 L69.464,22.204 L69.464,21.544 L67.88,21.544 Z M80.084,24.04 C80.076,23.7919988 80.0600001,23.5740009 80.036,23.386 C80.0119999,23.1979991 79.9700003,23.0380007 79.91,22.906 C79.8499997,22.7739993 79.7660005,22.6740003 79.658,22.606 C79.5499995,22.5379997 79.4120008,22.504 79.244,22.504 C79.0759992,22.504 78.9380005,22.5419996 78.83,22.618 C78.7219995,22.6940004 78.6360003,22.7939994 78.572,22.918 C78.5079997,23.0420006 78.4620001,23.1799992 78.434,23.332 C78.4059999,23.4840008 78.392,23.6359992 78.392,23.788 L78.392,24.04 L80.084,24.04 Z M78.392,25.024 L78.392,25.54 C78.392,25.732001 78.4059999,25.9179991 78.434,26.098 C78.4620001,26.2780009 78.5079997,26.4379993 78.572,26.578 C78.6360003,26.7180007 78.7199995,26.8299996 78.824,26.914 C78.9280005,26.9980004 79.0559992,27.04 79.208,27.04 C79.4880014,27.04 79.6919994,26.940001 79.82,26.74 C79.9480006,26.539999 80.0359998,26.236002 80.084,25.828 L81.572,25.828 C81.5399998,26.5800038 81.3400018,27.151998 80.972,27.544 C80.6039982,27.936002 80.024004,28.132 79.232,28.132 C78.631997,28.132 78.1640017,28.032001 77.828,27.832 C77.4919983,27.631999 77.2440008,27.3680016 77.084,27.04 C76.9239992,26.7119984 76.8260002,26.344002 76.79,25.936 C76.7539998,25.527998 76.736,25.120002 76.736,24.712 C76.736,24.2799978 76.7659997,23.864002 76.826,23.464 C76.8860003,23.063998 77.0059991,22.7080016 77.186,22.396 C77.3660009,22.0839984 77.6239983,21.8360009 77.96,21.652 C78.2960017,21.4679991 78.7439972,21.376 79.304,21.376 C79.7840024,21.376 80.1779985,21.4539992 80.486,21.61 C80.7940015,21.7660008 81.0359991,21.9859986 81.212,22.27 C81.3880009,22.5540014 81.5079997,22.897998 81.572,23.302 C81.6360003,23.706002 81.668,24.1559975 81.668,24.652 L81.668,25.024 L78.392,25.024 Z" id="Pagename"></path>
            <g id="Group" transform="translate(33.000000, 38.000000)">
                <path d="M8.4,6 L11.592,6 L11.592,5.056 L9.552,5.056 L9.552,0.288 L8.4,0.288 L8.4,6 Z M13.032,3.848 C13.032,4.06666776 13.0373333,4.2693324 13.048,4.456 C13.0586667,4.6426676 13.0839998,4.802666 13.124,4.936 C13.1640002,5.069334 13.2239996,5.17333296 13.304,5.248 C13.3840004,5.32266704 13.490666,5.36 13.624,5.36 C13.8480011,5.36 14.0026662,5.24266784 14.088,5.008 C14.1733338,4.77333216 14.216,4.38666936 14.216,3.848 C14.216,3.30933064 14.1733338,2.92266784 14.088,2.688 C14.0026662,2.45333216 13.8480011,2.336 13.624,2.336 C13.490666,2.336 13.3840004,2.37333296 13.304,2.448 C13.2239996,2.52266704 13.1640002,2.626666 13.124,2.76 C13.0839998,2.893334 13.0586667,3.0533324 13.048,3.24 C13.0373333,3.4266676 13.032,3.62933224 13.032,3.848 Z M11.928,3.848 C11.928,3.47999816 11.957333,3.15466808 12.016,2.872 C12.074667,2.58933192 12.170666,2.35333428 12.304,2.164 C12.437334,1.97466572 12.6119989,1.83066716 12.828,1.732 C13.0440011,1.63333284 13.3093318,1.584 13.624,1.584 C13.9546683,1.57866664 14.2293322,1.6226662 14.448,1.716 C14.6666678,1.8093338 14.8399994,1.95199904 14.968,2.144 C15.0960006,2.33600096 15.1866664,2.57333192 15.24,2.856 C15.2933336,3.13866808 15.32,3.46933144 15.32,3.848 C15.32,4.21600184 15.290667,4.54133192 15.232,4.824 C15.173333,5.10666808 15.077334,5.34266572 14.944,5.532 C14.810666,5.72133428 14.6360011,5.86133288 14.42,5.952 C14.2039989,6.04266712 13.9386682,6.088 13.624,6.088 C13.2933317,6.09333336 13.0186678,6.05200044 12.8,5.964 C12.5813322,5.87599956 12.4080006,5.73733428 12.28,5.548 C12.1519994,5.35866572 12.0613336,5.12133476 12.008,4.836 C11.9546664,4.55066524 11.928,4.2213352 11.928,3.848 Z M15.912,1.696 L15.912,6 L17.016,6 L17.016,3.416 C17.016,3.27199928 17.0399998,3.15066716 17.088,3.052 C17.1360002,2.95333284 17.1999996,2.87333364 17.28,2.812 C17.3600004,2.75066636 17.4479995,2.7066668 17.544,2.68 C17.6400005,2.6533332 17.7359995,2.64 17.832,2.64 C17.890667,2.64 17.9479997,2.64133332 18.004,2.644 C18.0600003,2.64666668 18.117333,2.65066664 18.176,2.656 L18.176,1.6 C18.1439998,1.59466664 18.1106668,1.59066668 18.076,1.588 C18.0413332,1.58533332 18.0080002,1.584 17.976,1.584 C17.7466655,1.584 17.5520008,1.64666604 17.392,1.772 C17.2319992,1.89733396 17.0960006,2.06399896 16.984,2.272 L16.968,2.272 L16.968,1.696 L15.912,1.696 Z M20.648,3.36 C20.6426666,3.19466584 20.6320001,3.04933396 20.616,2.924 C20.5999999,2.79866604 20.5720002,2.69200044 20.532,2.604 C20.4919998,2.51599956 20.4360004,2.44933356 20.364,2.404 C20.2919996,2.35866644 20.2000006,2.336 20.088,2.336 C19.9759994,2.336 19.8840004,2.36133308 19.812,2.412 C19.7399996,2.46266692 19.6826669,2.52933292 19.64,2.612 C19.5973331,2.69466708 19.5666668,2.78666616 19.548,2.888 C19.5293332,2.98933384 19.52,3.09066616 19.52,3.192 L19.52,3.36 L20.648,3.36 Z M19.52,4.016 L19.52,4.36 C19.52,4.48800064 19.5293332,4.6119994 19.548,4.732 C19.5666668,4.8520006 19.5973331,4.9586662 19.64,5.052 C19.6826669,5.1453338 19.7386663,5.21999972 19.808,5.276 C19.8773337,5.33200028 19.9626662,5.36 20.064,5.36 C20.2506676,5.36 20.3866662,5.293334 20.472,5.16 C20.5573338,5.026666 20.6159998,4.82400136 20.648,4.552 L21.64,4.552 C21.6186666,5.05333584 21.4853346,5.43466536 21.24,5.696 C20.9946654,5.95733464 20.6080026,6.088 20.08,6.088 C19.679998,6.088 19.3680011,6.021334 19.144,5.888 C18.9199989,5.754666 18.7546672,5.57866776 18.648,5.36 C18.5413328,5.14133224 18.4760001,4.89600136 18.452,4.624 C18.4279999,4.35199864 18.416,4.08000136 18.416,3.808 C18.416,3.51999856 18.4359998,3.242668 18.476,2.976 C18.5160002,2.709332 18.5959994,2.47200104 18.716,2.264 C18.8360006,2.05599896 19.0079989,1.89066728 19.232,1.768 C19.4560011,1.64533272 19.7546648,1.584 20.128,1.584 C20.4480016,1.584 20.7106656,1.63599948 20.916,1.74 C21.1213344,1.84400052 21.2826661,1.99066572 21.4,2.18 C21.5173339,2.36933428 21.5973331,2.59866532 21.64,2.868 C21.6826669,3.13733468 21.704,3.43733168 21.704,3.768 L21.704,4.016 L19.52,4.016 Z M22.28,1.696 L22.28,6 L23.384,6 L23.384,3.168 C23.384,2.91199872 23.4359995,2.72533392 23.54,2.608 C23.6440005,2.49066608 23.7839991,2.432 23.96,2.432 C24.1146674,2.432 24.225333,2.47999952 24.292,2.576 C24.358667,2.67200048 24.392,2.81066576 24.392,2.992 L24.392,6 L25.496,6 L25.496,3.168 C25.496,2.91199872 25.5479995,2.72533392 25.652,2.608 C25.7560005,2.49066608 25.8959991,2.432 26.072,2.432 C26.2266674,2.432 26.337333,2.47999952 26.404,2.576 C26.470667,2.67200048 26.504,2.81066576 26.504,2.992 L26.504,6 L27.608,6 L27.608,2.872 C27.608,2.45599792 27.5213342,2.13733444 27.348,1.916 C27.1746658,1.69466556 26.9040018,1.584 26.536,1.584 C26.2746654,1.584 26.0493343,1.64133276 25.86,1.756 C25.6706657,1.87066724 25.5333338,2.04266552 25.448,2.272 L25.432,2.272 C25.373333,2.04799888 25.2573342,1.87733392 25.084,1.76 C24.9106658,1.64266608 24.6960013,1.584 24.44,1.584 C24.1999988,1.584 23.9933342,1.62666624 23.82,1.712 C23.6466658,1.79733376 23.4906674,1.93866568 23.352,2.136 L23.336,2.136 L23.336,1.696 L22.28,1.696 Z M30.304,0.224 L30.304,1.168 L31.408,1.168 L31.408,0.224 L30.304,0.224 Z M30.304,1.696 L30.304,6 L31.408,6 L31.408,1.696 L30.304,1.696 Z M32.184,1.696 L33.24,1.696 L33.24,2.152 L33.256,2.152 C33.3786673,1.94933232 33.5159992,1.80400044 33.668,1.716 C33.8200008,1.62799956 34.0079989,1.584 34.232,1.584 C34.6853356,1.584 35.0186656,1.76133156 35.232,2.116 C35.4453344,2.47066844 35.552,3.047996 35.552,3.848 C35.552,4.648004 35.4453344,5.2213316 35.232,5.568 C35.0186656,5.9146684 34.6853356,6.088 34.232,6.088 C34.023999,6.088 33.8466674,6.04933372 33.7,5.972 C33.5533326,5.89466628 33.4213339,5.77066752 33.304,5.6 L33.288,5.6 L33.288,7.384 L32.184,7.384 L32.184,1.696 Z M33.288,3.848 C33.288,4.31733568 33.3239996,4.67066548 33.396,4.908 C33.4680004,5.14533452 33.6266654,5.264 33.872,5.264 C34.1120012,5.264 34.2679996,5.14533452 34.34,4.908 C34.4120004,4.67066548 34.448,4.31733568 34.448,3.848 C34.448,3.37866432 34.4120004,3.02533452 34.34,2.788 C34.2679996,2.55066548 34.1120012,2.432 33.872,2.432 C33.6266654,2.432 33.4680004,2.55066548 33.396,2.788 C33.3239996,3.02533452 33.288,3.37866432 33.288,3.848 Z M36.992,4.592 L36,4.592 L36,4.744 C36,4.95200104 36.0239998,5.13999916 36.072,5.308 C36.1200002,5.47600084 36.2039994,5.61866608 36.324,5.736 C36.4440006,5.85333392 36.6066656,5.94133304 36.812,6 C37.0173344,6.05866696 37.2746651,6.088 37.584,6.088 C37.8186678,6.088 38.0333324,6.06400024 38.228,6.016 C38.4226676,5.96799976 38.590666,5.88800056 38.732,5.776 C38.873334,5.66399944 38.9839996,5.52400084 39.064,5.356 C39.1440004,5.18799916 39.184,4.98933448 39.184,4.76 C39.184,4.43466504 39.1120007,4.17733428 38.968,3.988 C38.8239993,3.79866572 38.5786684,3.64533392 38.232,3.528 L37.568,3.304 C37.3813324,3.24533304 37.254667,3.17333376 37.188,3.088 C37.121333,3.00266624 37.088,2.9066672 37.088,2.8 C37.088,2.64533256 37.1399995,2.52933372 37.244,2.452 C37.3480005,2.37466628 37.4693326,2.336 37.608,2.336 C37.7893342,2.336 37.9159996,2.38799948 37.988,2.492 C38.0600004,2.59600052 38.096,2.75999888 38.096,2.984 L39.088,2.984 L39.088,2.808 C39.088,2.41866472 38.9680012,2.1173344 38.728,1.904 C38.4879988,1.6906656 38.1173358,1.584 37.616,1.584 C37.3333319,1.584 37.092001,1.61866632 36.892,1.688 C36.691999,1.75733368 36.5280006,1.85066608 36.4,1.968 C36.2719994,2.08533392 36.178667,2.22266588 36.12,2.38 C36.061333,2.53733412 36.032,2.70399912 36.032,2.88 C36.032,3.18400152 36.1093326,3.43333236 36.264,3.628 C36.4186674,3.82266764 36.6479985,3.9733328 36.952,4.08 L37.728,4.36 C37.8346672,4.40266688 37.9279996,4.45999964 38.008,4.532 C38.0880004,4.60400036 38.128,4.70933264 38.128,4.848 C38.128,5.01866752 38.0773338,5.14666624 37.976,5.232 C37.8746662,5.31733376 37.7386675,5.36 37.568,5.36 C37.3813324,5.36 37.2386672,5.30266724 37.14,5.188 C37.0413328,5.07333276 36.992,4.9226676 36.992,4.736 L36.992,4.592 Z M41.944,5.496 L41.944,6 L43,6 L43,1.696 L41.896,1.696 L41.896,4.552 C41.896,5.02666904 41.7013353,5.264 41.312,5.264 C41.1466658,5.264 41.026667,5.22000044 40.952,5.132 C40.877333,5.04399956 40.84,4.88800112 40.84,4.664 L40.84,1.696 L39.736,1.696 L39.736,4.888 C39.736,5.32000216 39.8306657,5.62799908 40.02,5.812 C40.2093343,5.99600092 40.4799982,6.088 40.832,6.088 C41.0720012,6.088 41.2853324,6.04266712 41.472,5.952 C41.6586676,5.86133288 41.8106661,5.7093344 41.928,5.496 L41.944,5.496 Z M43.736,1.696 L43.736,6 L44.84,6 L44.84,3.168 C44.84,2.91199872 44.8919995,2.72533392 44.996,2.608 C45.1000005,2.49066608 45.2399991,2.432 45.416,2.432 C45.5706674,2.432 45.681333,2.47999952 45.748,2.576 C45.814667,2.67200048 45.848,2.81066576 45.848,2.992 L45.848,6 L46.952,6 L46.952,3.168 C46.952,2.91199872 47.0039995,2.72533392 47.108,2.608 C47.2120005,2.49066608 47.3519991,2.432 47.528,2.432 C47.6826674,2.432 47.793333,2.47999952 47.86,2.576 C47.926667,2.67200048 47.96,2.81066576 47.96,2.992 L47.96,6 L49.064,6 L49.064,2.872 C49.064,2.45599792 48.9773342,2.13733444 48.804,1.916 C48.6306658,1.69466556 48.3600018,1.584 47.992,1.584 C47.7306654,1.584 47.5053343,1.64133276 47.316,1.756 C47.1266657,1.87066724 46.9893338,2.04266552 46.904,2.272 L46.888,2.272 C46.829333,2.04799888 46.7133342,1.87733392 46.54,1.76 C46.3666658,1.64266608 46.1520013,1.584 45.896,1.584 C45.6559988,1.584 45.4493342,1.62666624 45.276,1.712 C45.1026658,1.79733376 44.9466674,1.93866568 44.808,2.136 L44.792,2.136 L44.792,1.696 L43.736,1.696 Z M53.928,5.544 L53.912,5.544 C53.7893327,5.74666768 53.6520008,5.8879996 53.5,5.968 C53.3479992,6.0480004 53.1600011,6.088 52.936,6.088 C52.4826644,6.088 52.1493344,5.9146684 51.936,5.568 C51.7226656,5.2213316 51.616,4.648004 51.616,3.848 C51.616,3.047996 51.7226656,2.47066844 51.936,2.116 C52.1493344,1.76133156 52.4826644,1.584 52.936,1.584 C53.144001,1.584 53.3213326,1.62666624 53.468,1.712 C53.6146674,1.79733376 53.7466661,1.92533248 53.864,2.096 L53.88,2.096 L53.88,0.288 L54.984,0.288 L54.984,6 L53.928,6 L53.928,5.544 Z M52.72,3.848 C52.72,4.31733568 52.7559996,4.67066548 52.828,4.908 C52.9000004,5.14533452 53.0559988,5.264 53.296,5.264 C53.5413346,5.264 53.6999996,5.14533452 53.772,4.908 C53.8440004,4.67066548 53.88,4.31733568 53.88,3.848 C53.88,3.37866432 53.8440004,3.02533452 53.772,2.788 C53.6999996,2.55066548 53.5413346,2.432 53.296,2.432 C53.0559988,2.432 52.9000004,2.55066548 52.828,2.788 C52.7559996,3.02533452 52.72,3.37866432 52.72,3.848 Z M56.68,3.848 C56.68,4.06666776 56.6853333,4.2693324 56.696,4.456 C56.7066667,4.6426676 56.7319998,4.802666 56.772,4.936 C56.8120002,5.069334 56.8719996,5.17333296 56.952,5.248 C57.0320004,5.32266704 57.138666,5.36 57.272,5.36 C57.4960011,5.36 57.6506662,5.24266784 57.736,5.008 C57.8213338,4.77333216 57.864,4.38666936 57.864,3.848 C57.864,3.30933064 57.8213338,2.92266784 57.736,2.688 C57.6506662,2.45333216 57.4960011,2.336 57.272,2.336 C57.138666,2.336 57.0320004,2.37333296 56.952,2.448 C56.8719996,2.52266704 56.8120002,2.626666 56.772,2.76 C56.7319998,2.893334 56.7066667,3.0533324 56.696,3.24 C56.6853333,3.4266676 56.68,3.62933224 56.68,3.848 Z M55.576,3.848 C55.576,3.47999816 55.605333,3.15466808 55.664,2.872 C55.722667,2.58933192 55.818666,2.35333428 55.952,2.164 C56.085334,1.97466572 56.2599989,1.83066716 56.476,1.732 C56.6920011,1.63333284 56.9573318,1.584 57.272,1.584 C57.6026683,1.57866664 57.8773322,1.6226662 58.096,1.716 C58.3146678,1.8093338 58.4879994,1.95199904 58.616,2.144 C58.7440006,2.33600096 58.8346664,2.57333192 58.888,2.856 C58.9413336,3.13866808 58.968,3.46933144 58.968,3.848 C58.968,4.21600184 58.938667,4.54133192 58.88,4.824 C58.821333,5.10666808 58.725334,5.34266572 58.592,5.532 C58.458666,5.72133428 58.2840011,5.86133288 58.068,5.952 C57.8519989,6.04266712 57.5866682,6.088 57.272,6.088 C56.9413317,6.09333336 56.6666678,6.05200044 56.448,5.964 C56.2293322,5.87599956 56.0560006,5.73733428 55.928,5.548 C55.7999994,5.35866572 55.7093336,5.12133476 55.656,4.836 C55.6026664,4.55066524 55.576,4.2213352 55.576,3.848 Z M59.6,0.288 L59.6,6 L60.704,6 L60.704,0.288 L59.6,0.288 Z M62.44,3.848 C62.44,4.06666776 62.4453333,4.2693324 62.456,4.456 C62.4666667,4.6426676 62.4919998,4.802666 62.532,4.936 C62.5720002,5.069334 62.6319996,5.17333296 62.712,5.248 C62.7920004,5.32266704 62.898666,5.36 63.032,5.36 C63.2560011,5.36 63.4106662,5.24266784 63.496,5.008 C63.5813338,4.77333216 63.624,4.38666936 63.624,3.848 C63.624,3.30933064 63.5813338,2.92266784 63.496,2.688 C63.4106662,2.45333216 63.2560011,2.336 63.032,2.336 C62.898666,2.336 62.7920004,2.37333296 62.712,2.448 C62.6319996,2.52266704 62.5720002,2.626666 62.532,2.76 C62.4919998,2.893334 62.4666667,3.0533324 62.456,3.24 C62.4453333,3.4266676 62.44,3.62933224 62.44,3.848 Z M61.336,3.848 C61.336,3.47999816 61.365333,3.15466808 61.424,2.872 C61.482667,2.58933192 61.578666,2.35333428 61.712,2.164 C61.845334,1.97466572 62.0199989,1.83066716 62.236,1.732 C62.4520011,1.63333284 62.7173318,1.584 63.032,1.584 C63.3626683,1.57866664 63.6373322,1.6226662 63.856,1.716 C64.0746678,1.8093338 64.2479994,1.95199904 64.376,2.144 C64.5040006,2.33600096 64.5946664,2.57333192 64.648,2.856 C64.7013336,3.13866808 64.728,3.46933144 64.728,3.848 C64.728,4.21600184 64.698667,4.54133192 64.64,4.824 C64.581333,5.10666808 64.485334,5.34266572 64.352,5.532 C64.218666,5.72133428 64.0440011,5.86133288 63.828,5.952 C63.6119989,6.04266712 63.3466682,6.088 63.032,6.088 C62.7013317,6.09333336 62.4266678,6.05200044 62.208,5.964 C61.9893322,5.87599956 61.8160006,5.73733428 61.688,5.548 C61.5599994,5.35866572 61.4693336,5.12133476 61.416,4.836 C61.3626664,4.55066524 61.336,4.2213352 61.336,3.848 Z M65.32,1.696 L65.32,6 L66.424,6 L66.424,3.416 C66.424,3.27199928 66.4479998,3.15066716 66.496,3.052 C66.5440002,2.95333284 66.6079996,2.87333364 66.688,2.812 C66.7680004,2.75066636 66.8559995,2.7066668 66.952,2.68 C67.0480005,2.6533332 67.1439995,2.64 67.24,2.64 C67.298667,2.64 67.3559997,2.64133332 67.412,2.644 C67.4680003,2.64666668 67.525333,2.65066664 67.584,2.656 L67.584,1.6 C67.5519998,1.59466664 67.5186668,1.59066668 67.484,1.588 C67.4493332,1.58533332 67.4160002,1.584 67.384,1.584 C67.1546655,1.584 66.9600008,1.64666604 66.8,1.772 C66.6399992,1.89733396 66.5040006,2.06399896 66.392,2.272 L66.376,2.272 L66.376,1.696 L65.32,1.696 Z" id="Lorem-ipsum-dolor"></path>
                <circle id="Oval" cx="1.5" cy="3.5" r="1.5"></circle>
            </g>
            <g id="Group" transform="translate(33.000000, 50.000000)">
                <path d="M8.4,6 L11.592,6 L11.592,5.056 L9.552,5.056 L9.552,0.288 L8.4,0.288 L8.4,6 Z M13.032,3.848 C13.032,4.06666776 13.0373333,4.2693324 13.048,4.456 C13.0586667,4.6426676 13.0839998,4.802666 13.124,4.936 C13.1640002,5.069334 13.2239996,5.17333296 13.304,5.248 C13.3840004,5.32266704 13.490666,5.36 13.624,5.36 C13.8480011,5.36 14.0026662,5.24266784 14.088,5.008 C14.1733338,4.77333216 14.216,4.38666936 14.216,3.848 C14.216,3.30933064 14.1733338,2.92266784 14.088,2.688 C14.0026662,2.45333216 13.8480011,2.336 13.624,2.336 C13.490666,2.336 13.3840004,2.37333296 13.304,2.448 C13.2239996,2.52266704 13.1640002,2.626666 13.124,2.76 C13.0839998,2.893334 13.0586667,3.0533324 13.048,3.24 C13.0373333,3.4266676 13.032,3.62933224 13.032,3.848 Z M11.928,3.848 C11.928,3.47999816 11.957333,3.15466808 12.016,2.872 C12.074667,2.58933192 12.170666,2.35333428 12.304,2.164 C12.437334,1.97466572 12.6119989,1.83066716 12.828,1.732 C13.0440011,1.63333284 13.3093318,1.584 13.624,1.584 C13.9546683,1.57866664 14.2293322,1.6226662 14.448,1.716 C14.6666678,1.8093338 14.8399994,1.95199904 14.968,2.144 C15.0960006,2.33600096 15.1866664,2.57333192 15.24,2.856 C15.2933336,3.13866808 15.32,3.46933144 15.32,3.848 C15.32,4.21600184 15.290667,4.54133192 15.232,4.824 C15.173333,5.10666808 15.077334,5.34266572 14.944,5.532 C14.810666,5.72133428 14.6360011,5.86133288 14.42,5.952 C14.2039989,6.04266712 13.9386682,6.088 13.624,6.088 C13.2933317,6.09333336 13.0186678,6.05200044 12.8,5.964 C12.5813322,5.87599956 12.4080006,5.73733428 12.28,5.548 C12.1519994,5.35866572 12.0613336,5.12133476 12.008,4.836 C11.9546664,4.55066524 11.928,4.2213352 11.928,3.848 Z M15.912,1.696 L15.912,6 L17.016,6 L17.016,3.416 C17.016,3.27199928 17.0399998,3.15066716 17.088,3.052 C17.1360002,2.95333284 17.1999996,2.87333364 17.28,2.812 C17.3600004,2.75066636 17.4479995,2.7066668 17.544,2.68 C17.6400005,2.6533332 17.7359995,2.64 17.832,2.64 C17.890667,2.64 17.9479997,2.64133332 18.004,2.644 C18.0600003,2.64666668 18.117333,2.65066664 18.176,2.656 L18.176,1.6 C18.1439998,1.59466664 18.1106668,1.59066668 18.076,1.588 C18.0413332,1.58533332 18.0080002,1.584 17.976,1.584 C17.7466655,1.584 17.5520008,1.64666604 17.392,1.772 C17.2319992,1.89733396 17.0960006,2.06399896 16.984,2.272 L16.968,2.272 L16.968,1.696 L15.912,1.696 Z M20.648,3.36 C20.6426666,3.19466584 20.6320001,3.04933396 20.616,2.924 C20.5999999,2.79866604 20.5720002,2.69200044 20.532,2.604 C20.4919998,2.51599956 20.4360004,2.44933356 20.364,2.404 C20.2919996,2.35866644 20.2000006,2.336 20.088,2.336 C19.9759994,2.336 19.8840004,2.36133308 19.812,2.412 C19.7399996,2.46266692 19.6826669,2.52933292 19.64,2.612 C19.5973331,2.69466708 19.5666668,2.78666616 19.548,2.888 C19.5293332,2.98933384 19.52,3.09066616 19.52,3.192 L19.52,3.36 L20.648,3.36 Z M19.52,4.016 L19.52,4.36 C19.52,4.48800064 19.5293332,4.6119994 19.548,4.732 C19.5666668,4.8520006 19.5973331,4.9586662 19.64,5.052 C19.6826669,5.1453338 19.7386663,5.21999972 19.808,5.276 C19.8773337,5.33200028 19.9626662,5.36 20.064,5.36 C20.2506676,5.36 20.3866662,5.293334 20.472,5.16 C20.5573338,5.026666 20.6159998,4.82400136 20.648,4.552 L21.64,4.552 C21.6186666,5.05333584 21.4853346,5.43466536 21.24,5.696 C20.9946654,5.95733464 20.6080026,6.088 20.08,6.088 C19.679998,6.088 19.3680011,6.021334 19.144,5.888 C18.9199989,5.754666 18.7546672,5.57866776 18.648,5.36 C18.5413328,5.14133224 18.4760001,4.89600136 18.452,4.624 C18.4279999,4.35199864 18.416,4.08000136 18.416,3.808 C18.416,3.51999856 18.4359998,3.242668 18.476,2.976 C18.5160002,2.709332 18.5959994,2.47200104 18.716,2.264 C18.8360006,2.05599896 19.0079989,1.89066728 19.232,1.768 C19.4560011,1.64533272 19.7546648,1.584 20.128,1.584 C20.4480016,1.584 20.7106656,1.63599948 20.916,1.74 C21.1213344,1.84400052 21.2826661,1.99066572 21.4,2.18 C21.5173339,2.36933428 21.5973331,2.59866532 21.64,2.868 C21.6826669,3.13733468 21.704,3.43733168 21.704,3.768 L21.704,4.016 L19.52,4.016 Z M22.28,1.696 L22.28,6 L23.384,6 L23.384,3.168 C23.384,2.91199872 23.4359995,2.72533392 23.54,2.608 C23.6440005,2.49066608 23.7839991,2.432 23.96,2.432 C24.1146674,2.432 24.225333,2.47999952 24.292,2.576 C24.358667,2.67200048 24.392,2.81066576 24.392,2.992 L24.392,6 L25.496,6 L25.496,3.168 C25.496,2.91199872 25.5479995,2.72533392 25.652,2.608 C25.7560005,2.49066608 25.8959991,2.432 26.072,2.432 C26.2266674,2.432 26.337333,2.47999952 26.404,2.576 C26.470667,2.67200048 26.504,2.81066576 26.504,2.992 L26.504,6 L27.608,6 L27.608,2.872 C27.608,2.45599792 27.5213342,2.13733444 27.348,1.916 C27.1746658,1.69466556 26.9040018,1.584 26.536,1.584 C26.2746654,1.584 26.0493343,1.64133276 25.86,1.756 C25.6706657,1.87066724 25.5333338,2.04266552 25.448,2.272 L25.432,2.272 C25.373333,2.04799888 25.2573342,1.87733392 25.084,1.76 C24.9106658,1.64266608 24.6960013,1.584 24.44,1.584 C24.1999988,1.584 23.9933342,1.62666624 23.82,1.712 C23.6466658,1.79733376 23.4906674,1.93866568 23.352,2.136 L23.336,2.136 L23.336,1.696 L22.28,1.696 Z M30.304,0.224 L30.304,1.168 L31.408,1.168 L31.408,0.224 L30.304,0.224 Z M30.304,1.696 L30.304,6 L31.408,6 L31.408,1.696 L30.304,1.696 Z M32.184,1.696 L33.24,1.696 L33.24,2.152 L33.256,2.152 C33.3786673,1.94933232 33.5159992,1.80400044 33.668,1.716 C33.8200008,1.62799956 34.0079989,1.584 34.232,1.584 C34.6853356,1.584 35.0186656,1.76133156 35.232,2.116 C35.4453344,2.47066844 35.552,3.047996 35.552,3.848 C35.552,4.648004 35.4453344,5.2213316 35.232,5.568 C35.0186656,5.9146684 34.6853356,6.088 34.232,6.088 C34.023999,6.088 33.8466674,6.04933372 33.7,5.972 C33.5533326,5.89466628 33.4213339,5.77066752 33.304,5.6 L33.288,5.6 L33.288,7.384 L32.184,7.384 L32.184,1.696 Z M33.288,3.848 C33.288,4.31733568 33.3239996,4.67066548 33.396,4.908 C33.4680004,5.14533452 33.6266654,5.264 33.872,5.264 C34.1120012,5.264 34.2679996,5.14533452 34.34,4.908 C34.4120004,4.67066548 34.448,4.31733568 34.448,3.848 C34.448,3.37866432 34.4120004,3.02533452 34.34,2.788 C34.2679996,2.55066548 34.1120012,2.432 33.872,2.432 C33.6266654,2.432 33.4680004,2.55066548 33.396,2.788 C33.3239996,3.02533452 33.288,3.37866432 33.288,3.848 Z M36.992,4.592 L36,4.592 L36,4.744 C36,4.95200104 36.0239998,5.13999916 36.072,5.308 C36.1200002,5.47600084 36.2039994,5.61866608 36.324,5.736 C36.4440006,5.85333392 36.6066656,5.94133304 36.812,6 C37.0173344,6.05866696 37.2746651,6.088 37.584,6.088 C37.8186678,6.088 38.0333324,6.06400024 38.228,6.016 C38.4226676,5.96799976 38.590666,5.88800056 38.732,5.776 C38.873334,5.66399944 38.9839996,5.52400084 39.064,5.356 C39.1440004,5.18799916 39.184,4.98933448 39.184,4.76 C39.184,4.43466504 39.1120007,4.17733428 38.968,3.988 C38.8239993,3.79866572 38.5786684,3.64533392 38.232,3.528 L37.568,3.304 C37.3813324,3.24533304 37.254667,3.17333376 37.188,3.088 C37.121333,3.00266624 37.088,2.9066672 37.088,2.8 C37.088,2.64533256 37.1399995,2.52933372 37.244,2.452 C37.3480005,2.37466628 37.4693326,2.336 37.608,2.336 C37.7893342,2.336 37.9159996,2.38799948 37.988,2.492 C38.0600004,2.59600052 38.096,2.75999888 38.096,2.984 L39.088,2.984 L39.088,2.808 C39.088,2.41866472 38.9680012,2.1173344 38.728,1.904 C38.4879988,1.6906656 38.1173358,1.584 37.616,1.584 C37.3333319,1.584 37.092001,1.61866632 36.892,1.688 C36.691999,1.75733368 36.5280006,1.85066608 36.4,1.968 C36.2719994,2.08533392 36.178667,2.22266588 36.12,2.38 C36.061333,2.53733412 36.032,2.70399912 36.032,2.88 C36.032,3.18400152 36.1093326,3.43333236 36.264,3.628 C36.4186674,3.82266764 36.6479985,3.9733328 36.952,4.08 L37.728,4.36 C37.8346672,4.40266688 37.9279996,4.45999964 38.008,4.532 C38.0880004,4.60400036 38.128,4.70933264 38.128,4.848 C38.128,5.01866752 38.0773338,5.14666624 37.976,5.232 C37.8746662,5.31733376 37.7386675,5.36 37.568,5.36 C37.3813324,5.36 37.2386672,5.30266724 37.14,5.188 C37.0413328,5.07333276 36.992,4.9226676 36.992,4.736 L36.992,4.592 Z M41.944,5.496 L41.944,6 L43,6 L43,1.696 L41.896,1.696 L41.896,4.552 C41.896,5.02666904 41.7013353,5.264 41.312,5.264 C41.1466658,5.264 41.026667,5.22000044 40.952,5.132 C40.877333,5.04399956 40.84,4.88800112 40.84,4.664 L40.84,1.696 L39.736,1.696 L39.736,4.888 C39.736,5.32000216 39.8306657,5.62799908 40.02,5.812 C40.2093343,5.99600092 40.4799982,6.088 40.832,6.088 C41.0720012,6.088 41.2853324,6.04266712 41.472,5.952 C41.6586676,5.86133288 41.8106661,5.7093344 41.928,5.496 L41.944,5.496 Z M43.736,1.696 L43.736,6 L44.84,6 L44.84,3.168 C44.84,2.91199872 44.8919995,2.72533392 44.996,2.608 C45.1000005,2.49066608 45.2399991,2.432 45.416,2.432 C45.5706674,2.432 45.681333,2.47999952 45.748,2.576 C45.814667,2.67200048 45.848,2.81066576 45.848,2.992 L45.848,6 L46.952,6 L46.952,3.168 C46.952,2.91199872 47.0039995,2.72533392 47.108,2.608 C47.2120005,2.49066608 47.3519991,2.432 47.528,2.432 C47.6826674,2.432 47.793333,2.47999952 47.86,2.576 C47.926667,2.67200048 47.96,2.81066576 47.96,2.992 L47.96,6 L49.064,6 L49.064,2.872 C49.064,2.45599792 48.9773342,2.13733444 48.804,1.916 C48.6306658,1.69466556 48.3600018,1.584 47.992,1.584 C47.7306654,1.584 47.5053343,1.64133276 47.316,1.756 C47.1266657,1.87066724 46.9893338,2.04266552 46.904,2.272 L46.888,2.272 C46.829333,2.04799888 46.7133342,1.87733392 46.54,1.76 C46.3666658,1.64266608 46.1520013,1.584 45.896,1.584 C45.6559988,1.584 45.4493342,1.62666624 45.276,1.712 C45.1026658,1.79733376 44.9466674,1.93866568 44.808,2.136 L44.792,2.136 L44.792,1.696 L43.736,1.696 Z M53.928,5.544 L53.912,5.544 C53.7893327,5.74666768 53.6520008,5.8879996 53.5,5.968 C53.3479992,6.0480004 53.1600011,6.088 52.936,6.088 C52.4826644,6.088 52.1493344,5.9146684 51.936,5.568 C51.7226656,5.2213316 51.616,4.648004 51.616,3.848 C51.616,3.047996 51.7226656,2.47066844 51.936,2.116 C52.1493344,1.76133156 52.4826644,1.584 52.936,1.584 C53.144001,1.584 53.3213326,1.62666624 53.468,1.712 C53.6146674,1.79733376 53.7466661,1.92533248 53.864,2.096 L53.88,2.096 L53.88,0.288 L54.984,0.288 L54.984,6 L53.928,6 L53.928,5.544 Z M52.72,3.848 C52.72,4.31733568 52.7559996,4.67066548 52.828,4.908 C52.9000004,5.14533452 53.0559988,5.264 53.296,5.264 C53.5413346,5.264 53.6999996,5.14533452 53.772,4.908 C53.8440004,4.67066548 53.88,4.31733568 53.88,3.848 C53.88,3.37866432 53.8440004,3.02533452 53.772,2.788 C53.6999996,2.55066548 53.5413346,2.432 53.296,2.432 C53.0559988,2.432 52.9000004,2.55066548 52.828,2.788 C52.7559996,3.02533452 52.72,3.37866432 52.72,3.848 Z M56.68,3.848 C56.68,4.06666776 56.6853333,4.2693324 56.696,4.456 C56.7066667,4.6426676 56.7319998,4.802666 56.772,4.936 C56.8120002,5.069334 56.8719996,5.17333296 56.952,5.248 C57.0320004,5.32266704 57.138666,5.36 57.272,5.36 C57.4960011,5.36 57.6506662,5.24266784 57.736,5.008 C57.8213338,4.77333216 57.864,4.38666936 57.864,3.848 C57.864,3.30933064 57.8213338,2.92266784 57.736,2.688 C57.6506662,2.45333216 57.4960011,2.336 57.272,2.336 C57.138666,2.336 57.0320004,2.37333296 56.952,2.448 C56.8719996,2.52266704 56.8120002,2.626666 56.772,2.76 C56.7319998,2.893334 56.7066667,3.0533324 56.696,3.24 C56.6853333,3.4266676 56.68,3.62933224 56.68,3.848 Z M55.576,3.848 C55.576,3.47999816 55.605333,3.15466808 55.664,2.872 C55.722667,2.58933192 55.818666,2.35333428 55.952,2.164 C56.085334,1.97466572 56.2599989,1.83066716 56.476,1.732 C56.6920011,1.63333284 56.9573318,1.584 57.272,1.584 C57.6026683,1.57866664 57.8773322,1.6226662 58.096,1.716 C58.3146678,1.8093338 58.4879994,1.95199904 58.616,2.144 C58.7440006,2.33600096 58.8346664,2.57333192 58.888,2.856 C58.9413336,3.13866808 58.968,3.46933144 58.968,3.848 C58.968,4.21600184 58.938667,4.54133192 58.88,4.824 C58.821333,5.10666808 58.725334,5.34266572 58.592,5.532 C58.458666,5.72133428 58.2840011,5.86133288 58.068,5.952 C57.8519989,6.04266712 57.5866682,6.088 57.272,6.088 C56.9413317,6.09333336 56.6666678,6.05200044 56.448,5.964 C56.2293322,5.87599956 56.0560006,5.73733428 55.928,5.548 C55.7999994,5.35866572 55.7093336,5.12133476 55.656,4.836 C55.6026664,4.55066524 55.576,4.2213352 55.576,3.848 Z M59.6,0.288 L59.6,6 L60.704,6 L60.704,0.288 L59.6,0.288 Z M62.44,3.848 C62.44,4.06666776 62.4453333,4.2693324 62.456,4.456 C62.4666667,4.6426676 62.4919998,4.802666 62.532,4.936 C62.5720002,5.069334 62.6319996,5.17333296 62.712,5.248 C62.7920004,5.32266704 62.898666,5.36 63.032,5.36 C63.2560011,5.36 63.4106662,5.24266784 63.496,5.008 C63.5813338,4.77333216 63.624,4.38666936 63.624,3.848 C63.624,3.30933064 63.5813338,2.92266784 63.496,2.688 C63.4106662,2.45333216 63.2560011,2.336 63.032,2.336 C62.898666,2.336 62.7920004,2.37333296 62.712,2.448 C62.6319996,2.52266704 62.5720002,2.626666 62.532,2.76 C62.4919998,2.893334 62.4666667,3.0533324 62.456,3.24 C62.4453333,3.4266676 62.44,3.62933224 62.44,3.848 Z M61.336,3.848 C61.336,3.47999816 61.365333,3.15466808 61.424,2.872 C61.482667,2.58933192 61.578666,2.35333428 61.712,2.164 C61.845334,1.97466572 62.0199989,1.83066716 62.236,1.732 C62.4520011,1.63333284 62.7173318,1.584 63.032,1.584 C63.3626683,1.57866664 63.6373322,1.6226662 63.856,1.716 C64.0746678,1.8093338 64.2479994,1.95199904 64.376,2.144 C64.5040006,2.33600096 64.5946664,2.57333192 64.648,2.856 C64.7013336,3.13866808 64.728,3.46933144 64.728,3.848 C64.728,4.21600184 64.698667,4.54133192 64.64,4.824 C64.581333,5.10666808 64.485334,5.34266572 64.352,5.532 C64.218666,5.72133428 64.0440011,5.86133288 63.828,5.952 C63.6119989,6.04266712 63.3466682,6.088 63.032,6.088 C62.7013317,6.09333336 62.4266678,6.05200044 62.208,5.964 C61.9893322,5.87599956 61.8160006,5.73733428 61.688,5.548 C61.5599994,5.35866572 61.4693336,5.12133476 61.416,4.836 C61.3626664,4.55066524 61.336,4.2213352 61.336,3.848 Z M65.32,1.696 L65.32,6 L66.424,6 L66.424,3.416 C66.424,3.27199928 66.4479998,3.15066716 66.496,3.052 C66.5440002,2.95333284 66.6079996,2.87333364 66.688,2.812 C66.7680004,2.75066636 66.8559995,2.7066668 66.952,2.68 C67.0480005,2.6533332 67.1439995,2.64 67.24,2.64 C67.298667,2.64 67.3559997,2.64133332 67.412,2.644 C67.4680003,2.64666668 67.525333,2.65066664 67.584,2.656 L67.584,1.6 C67.5519998,1.59466664 67.5186668,1.59066668 67.484,1.588 C67.4493332,1.58533332 67.4160002,1.584 67.384,1.584 C67.1546655,1.584 66.9600008,1.64666604 66.8,1.772 C66.6399992,1.89733396 66.5040006,2.06399896 66.392,2.272 L66.376,2.272 L66.376,1.696 L65.32,1.696 Z" id="Lorem-ipsum-dolor"></path>
                <circle id="Oval" cx="1.5" cy="3.5" r="1.5"></circle>
            </g>
            <g id="Group" transform="translate(33.000000, 62.000000)">
                <path d="M8.4,6 L11.592,6 L11.592,5.056 L9.552,5.056 L9.552,0.288 L8.4,0.288 L8.4,6 Z M13.032,3.848 C13.032,4.06666776 13.0373333,4.2693324 13.048,4.456 C13.0586667,4.6426676 13.0839998,4.802666 13.124,4.936 C13.1640002,5.069334 13.2239996,5.17333296 13.304,5.248 C13.3840004,5.32266704 13.490666,5.36 13.624,5.36 C13.8480011,5.36 14.0026662,5.24266784 14.088,5.008 C14.1733338,4.77333216 14.216,4.38666936 14.216,3.848 C14.216,3.30933064 14.1733338,2.92266784 14.088,2.688 C14.0026662,2.45333216 13.8480011,2.336 13.624,2.336 C13.490666,2.336 13.3840004,2.37333296 13.304,2.448 C13.2239996,2.52266704 13.1640002,2.626666 13.124,2.76 C13.0839998,2.893334 13.0586667,3.0533324 13.048,3.24 C13.0373333,3.4266676 13.032,3.62933224 13.032,3.848 Z M11.928,3.848 C11.928,3.47999816 11.957333,3.15466808 12.016,2.872 C12.074667,2.58933192 12.170666,2.35333428 12.304,2.164 C12.437334,1.97466572 12.6119989,1.83066716 12.828,1.732 C13.0440011,1.63333284 13.3093318,1.584 13.624,1.584 C13.9546683,1.57866664 14.2293322,1.6226662 14.448,1.716 C14.6666678,1.8093338 14.8399994,1.95199904 14.968,2.144 C15.0960006,2.33600096 15.1866664,2.57333192 15.24,2.856 C15.2933336,3.13866808 15.32,3.46933144 15.32,3.848 C15.32,4.21600184 15.290667,4.54133192 15.232,4.824 C15.173333,5.10666808 15.077334,5.34266572 14.944,5.532 C14.810666,5.72133428 14.6360011,5.86133288 14.42,5.952 C14.2039989,6.04266712 13.9386682,6.088 13.624,6.088 C13.2933317,6.09333336 13.0186678,6.05200044 12.8,5.964 C12.5813322,5.87599956 12.4080006,5.73733428 12.28,5.548 C12.1519994,5.35866572 12.0613336,5.12133476 12.008,4.836 C11.9546664,4.55066524 11.928,4.2213352 11.928,3.848 Z M15.912,1.696 L15.912,6 L17.016,6 L17.016,3.416 C17.016,3.27199928 17.0399998,3.15066716 17.088,3.052 C17.1360002,2.95333284 17.1999996,2.87333364 17.28,2.812 C17.3600004,2.75066636 17.4479995,2.7066668 17.544,2.68 C17.6400005,2.6533332 17.7359995,2.64 17.832,2.64 C17.890667,2.64 17.9479997,2.64133332 18.004,2.644 C18.0600003,2.64666668 18.117333,2.65066664 18.176,2.656 L18.176,1.6 C18.1439998,1.59466664 18.1106668,1.59066668 18.076,1.588 C18.0413332,1.58533332 18.0080002,1.584 17.976,1.584 C17.7466655,1.584 17.5520008,1.64666604 17.392,1.772 C17.2319992,1.89733396 17.0960006,2.06399896 16.984,2.272 L16.968,2.272 L16.968,1.696 L15.912,1.696 Z M20.648,3.36 C20.6426666,3.19466584 20.6320001,3.04933396 20.616,2.924 C20.5999999,2.79866604 20.5720002,2.69200044 20.532,2.604 C20.4919998,2.51599956 20.4360004,2.44933356 20.364,2.404 C20.2919996,2.35866644 20.2000006,2.336 20.088,2.336 C19.9759994,2.336 19.8840004,2.36133308 19.812,2.412 C19.7399996,2.46266692 19.6826669,2.52933292 19.64,2.612 C19.5973331,2.69466708 19.5666668,2.78666616 19.548,2.888 C19.5293332,2.98933384 19.52,3.09066616 19.52,3.192 L19.52,3.36 L20.648,3.36 Z M19.52,4.016 L19.52,4.36 C19.52,4.48800064 19.5293332,4.6119994 19.548,4.732 C19.5666668,4.8520006 19.5973331,4.9586662 19.64,5.052 C19.6826669,5.1453338 19.7386663,5.21999972 19.808,5.276 C19.8773337,5.33200028 19.9626662,5.36 20.064,5.36 C20.2506676,5.36 20.3866662,5.293334 20.472,5.16 C20.5573338,5.026666 20.6159998,4.82400136 20.648,4.552 L21.64,4.552 C21.6186666,5.05333584 21.4853346,5.43466536 21.24,5.696 C20.9946654,5.95733464 20.6080026,6.088 20.08,6.088 C19.679998,6.088 19.3680011,6.021334 19.144,5.888 C18.9199989,5.754666 18.7546672,5.57866776 18.648,5.36 C18.5413328,5.14133224 18.4760001,4.89600136 18.452,4.624 C18.4279999,4.35199864 18.416,4.08000136 18.416,3.808 C18.416,3.51999856 18.4359998,3.242668 18.476,2.976 C18.5160002,2.709332 18.5959994,2.47200104 18.716,2.264 C18.8360006,2.05599896 19.0079989,1.89066728 19.232,1.768 C19.4560011,1.64533272 19.7546648,1.584 20.128,1.584 C20.4480016,1.584 20.7106656,1.63599948 20.916,1.74 C21.1213344,1.84400052 21.2826661,1.99066572 21.4,2.18 C21.5173339,2.36933428 21.5973331,2.59866532 21.64,2.868 C21.6826669,3.13733468 21.704,3.43733168 21.704,3.768 L21.704,4.016 L19.52,4.016 Z M22.28,1.696 L22.28,6 L23.384,6 L23.384,3.168 C23.384,2.91199872 23.4359995,2.72533392 23.54,2.608 C23.6440005,2.49066608 23.7839991,2.432 23.96,2.432 C24.1146674,2.432 24.225333,2.47999952 24.292,2.576 C24.358667,2.67200048 24.392,2.81066576 24.392,2.992 L24.392,6 L25.496,6 L25.496,3.168 C25.496,2.91199872 25.5479995,2.72533392 25.652,2.608 C25.7560005,2.49066608 25.8959991,2.432 26.072,2.432 C26.2266674,2.432 26.337333,2.47999952 26.404,2.576 C26.470667,2.67200048 26.504,2.81066576 26.504,2.992 L26.504,6 L27.608,6 L27.608,2.872 C27.608,2.45599792 27.5213342,2.13733444 27.348,1.916 C27.1746658,1.69466556 26.9040018,1.584 26.536,1.584 C26.2746654,1.584 26.0493343,1.64133276 25.86,1.756 C25.6706657,1.87066724 25.5333338,2.04266552 25.448,2.272 L25.432,2.272 C25.373333,2.04799888 25.2573342,1.87733392 25.084,1.76 C24.9106658,1.64266608 24.6960013,1.584 24.44,1.584 C24.1999988,1.584 23.9933342,1.62666624 23.82,1.712 C23.6466658,1.79733376 23.4906674,1.93866568 23.352,2.136 L23.336,2.136 L23.336,1.696 L22.28,1.696 Z M30.304,0.224 L30.304,1.168 L31.408,1.168 L31.408,0.224 L30.304,0.224 Z M30.304,1.696 L30.304,6 L31.408,6 L31.408,1.696 L30.304,1.696 Z M32.184,1.696 L33.24,1.696 L33.24,2.152 L33.256,2.152 C33.3786673,1.94933232 33.5159992,1.80400044 33.668,1.716 C33.8200008,1.62799956 34.0079989,1.584 34.232,1.584 C34.6853356,1.584 35.0186656,1.76133156 35.232,2.116 C35.4453344,2.47066844 35.552,3.047996 35.552,3.848 C35.552,4.648004 35.4453344,5.2213316 35.232,5.568 C35.0186656,5.9146684 34.6853356,6.088 34.232,6.088 C34.023999,6.088 33.8466674,6.04933372 33.7,5.972 C33.5533326,5.89466628 33.4213339,5.77066752 33.304,5.6 L33.288,5.6 L33.288,7.384 L32.184,7.384 L32.184,1.696 Z M33.288,3.848 C33.288,4.31733568 33.3239996,4.67066548 33.396,4.908 C33.4680004,5.14533452 33.6266654,5.264 33.872,5.264 C34.1120012,5.264 34.2679996,5.14533452 34.34,4.908 C34.4120004,4.67066548 34.448,4.31733568 34.448,3.848 C34.448,3.37866432 34.4120004,3.02533452 34.34,2.788 C34.2679996,2.55066548 34.1120012,2.432 33.872,2.432 C33.6266654,2.432 33.4680004,2.55066548 33.396,2.788 C33.3239996,3.02533452 33.288,3.37866432 33.288,3.848 Z M36.992,4.592 L36,4.592 L36,4.744 C36,4.95200104 36.0239998,5.13999916 36.072,5.308 C36.1200002,5.47600084 36.2039994,5.61866608 36.324,5.736 C36.4440006,5.85333392 36.6066656,5.94133304 36.812,6 C37.0173344,6.05866696 37.2746651,6.088 37.584,6.088 C37.8186678,6.088 38.0333324,6.06400024 38.228,6.016 C38.4226676,5.96799976 38.590666,5.88800056 38.732,5.776 C38.873334,5.66399944 38.9839996,5.52400084 39.064,5.356 C39.1440004,5.18799916 39.184,4.98933448 39.184,4.76 C39.184,4.43466504 39.1120007,4.17733428 38.968,3.988 C38.8239993,3.79866572 38.5786684,3.64533392 38.232,3.528 L37.568,3.304 C37.3813324,3.24533304 37.254667,3.17333376 37.188,3.088 C37.121333,3.00266624 37.088,2.9066672 37.088,2.8 C37.088,2.64533256 37.1399995,2.52933372 37.244,2.452 C37.3480005,2.37466628 37.4693326,2.336 37.608,2.336 C37.7893342,2.336 37.9159996,2.38799948 37.988,2.492 C38.0600004,2.59600052 38.096,2.75999888 38.096,2.984 L39.088,2.984 L39.088,2.808 C39.088,2.41866472 38.9680012,2.1173344 38.728,1.904 C38.4879988,1.6906656 38.1173358,1.584 37.616,1.584 C37.3333319,1.584 37.092001,1.61866632 36.892,1.688 C36.691999,1.75733368 36.5280006,1.85066608 36.4,1.968 C36.2719994,2.08533392 36.178667,2.22266588 36.12,2.38 C36.061333,2.53733412 36.032,2.70399912 36.032,2.88 C36.032,3.18400152 36.1093326,3.43333236 36.264,3.628 C36.4186674,3.82266764 36.6479985,3.9733328 36.952,4.08 L37.728,4.36 C37.8346672,4.40266688 37.9279996,4.45999964 38.008,4.532 C38.0880004,4.60400036 38.128,4.70933264 38.128,4.848 C38.128,5.01866752 38.0773338,5.14666624 37.976,5.232 C37.8746662,5.31733376 37.7386675,5.36 37.568,5.36 C37.3813324,5.36 37.2386672,5.30266724 37.14,5.188 C37.0413328,5.07333276 36.992,4.9226676 36.992,4.736 L36.992,4.592 Z M41.944,5.496 L41.944,6 L43,6 L43,1.696 L41.896,1.696 L41.896,4.552 C41.896,5.02666904 41.7013353,5.264 41.312,5.264 C41.1466658,5.264 41.026667,5.22000044 40.952,5.132 C40.877333,5.04399956 40.84,4.88800112 40.84,4.664 L40.84,1.696 L39.736,1.696 L39.736,4.888 C39.736,5.32000216 39.8306657,5.62799908 40.02,5.812 C40.2093343,5.99600092 40.4799982,6.088 40.832,6.088 C41.0720012,6.088 41.2853324,6.04266712 41.472,5.952 C41.6586676,5.86133288 41.8106661,5.7093344 41.928,5.496 L41.944,5.496 Z M43.736,1.696 L43.736,6 L44.84,6 L44.84,3.168 C44.84,2.91199872 44.8919995,2.72533392 44.996,2.608 C45.1000005,2.49066608 45.2399991,2.432 45.416,2.432 C45.5706674,2.432 45.681333,2.47999952 45.748,2.576 C45.814667,2.67200048 45.848,2.81066576 45.848,2.992 L45.848,6 L46.952,6 L46.952,3.168 C46.952,2.91199872 47.0039995,2.72533392 47.108,2.608 C47.2120005,2.49066608 47.3519991,2.432 47.528,2.432 C47.6826674,2.432 47.793333,2.47999952 47.86,2.576 C47.926667,2.67200048 47.96,2.81066576 47.96,2.992 L47.96,6 L49.064,6 L49.064,2.872 C49.064,2.45599792 48.9773342,2.13733444 48.804,1.916 C48.6306658,1.69466556 48.3600018,1.584 47.992,1.584 C47.7306654,1.584 47.5053343,1.64133276 47.316,1.756 C47.1266657,1.87066724 46.9893338,2.04266552 46.904,2.272 L46.888,2.272 C46.829333,2.04799888 46.7133342,1.87733392 46.54,1.76 C46.3666658,1.64266608 46.1520013,1.584 45.896,1.584 C45.6559988,1.584 45.4493342,1.62666624 45.276,1.712 C45.1026658,1.79733376 44.9466674,1.93866568 44.808,2.136 L44.792,2.136 L44.792,1.696 L43.736,1.696 Z M53.928,5.544 L53.912,5.544 C53.7893327,5.74666768 53.6520008,5.8879996 53.5,5.968 C53.3479992,6.0480004 53.1600011,6.088 52.936,6.088 C52.4826644,6.088 52.1493344,5.9146684 51.936,5.568 C51.7226656,5.2213316 51.616,4.648004 51.616,3.848 C51.616,3.047996 51.7226656,2.47066844 51.936,2.116 C52.1493344,1.76133156 52.4826644,1.584 52.936,1.584 C53.144001,1.584 53.3213326,1.62666624 53.468,1.712 C53.6146674,1.79733376 53.7466661,1.92533248 53.864,2.096 L53.88,2.096 L53.88,0.288 L54.984,0.288 L54.984,6 L53.928,6 L53.928,5.544 Z M52.72,3.848 C52.72,4.31733568 52.7559996,4.67066548 52.828,4.908 C52.9000004,5.14533452 53.0559988,5.264 53.296,5.264 C53.5413346,5.264 53.6999996,5.14533452 53.772,4.908 C53.8440004,4.67066548 53.88,4.31733568 53.88,3.848 C53.88,3.37866432 53.8440004,3.02533452 53.772,2.788 C53.6999996,2.55066548 53.5413346,2.432 53.296,2.432 C53.0559988,2.432 52.9000004,2.55066548 52.828,2.788 C52.7559996,3.02533452 52.72,3.37866432 52.72,3.848 Z M56.68,3.848 C56.68,4.06666776 56.6853333,4.2693324 56.696,4.456 C56.7066667,4.6426676 56.7319998,4.802666 56.772,4.936 C56.8120002,5.069334 56.8719996,5.17333296 56.952,5.248 C57.0320004,5.32266704 57.138666,5.36 57.272,5.36 C57.4960011,5.36 57.6506662,5.24266784 57.736,5.008 C57.8213338,4.77333216 57.864,4.38666936 57.864,3.848 C57.864,3.30933064 57.8213338,2.92266784 57.736,2.688 C57.6506662,2.45333216 57.4960011,2.336 57.272,2.336 C57.138666,2.336 57.0320004,2.37333296 56.952,2.448 C56.8719996,2.52266704 56.8120002,2.626666 56.772,2.76 C56.7319998,2.893334 56.7066667,3.0533324 56.696,3.24 C56.6853333,3.4266676 56.68,3.62933224 56.68,3.848 Z M55.576,3.848 C55.576,3.47999816 55.605333,3.15466808 55.664,2.872 C55.722667,2.58933192 55.818666,2.35333428 55.952,2.164 C56.085334,1.97466572 56.2599989,1.83066716 56.476,1.732 C56.6920011,1.63333284 56.9573318,1.584 57.272,1.584 C57.6026683,1.57866664 57.8773322,1.6226662 58.096,1.716 C58.3146678,1.8093338 58.4879994,1.95199904 58.616,2.144 C58.7440006,2.33600096 58.8346664,2.57333192 58.888,2.856 C58.9413336,3.13866808 58.968,3.46933144 58.968,3.848 C58.968,4.21600184 58.938667,4.54133192 58.88,4.824 C58.821333,5.10666808 58.725334,5.34266572 58.592,5.532 C58.458666,5.72133428 58.2840011,5.86133288 58.068,5.952 C57.8519989,6.04266712 57.5866682,6.088 57.272,6.088 C56.9413317,6.09333336 56.6666678,6.05200044 56.448,5.964 C56.2293322,5.87599956 56.0560006,5.73733428 55.928,5.548 C55.7999994,5.35866572 55.7093336,5.12133476 55.656,4.836 C55.6026664,4.55066524 55.576,4.2213352 55.576,3.848 Z M59.6,0.288 L59.6,6 L60.704,6 L60.704,0.288 L59.6,0.288 Z M62.44,3.848 C62.44,4.06666776 62.4453333,4.2693324 62.456,4.456 C62.4666667,4.6426676 62.4919998,4.802666 62.532,4.936 C62.5720002,5.069334 62.6319996,5.17333296 62.712,5.248 C62.7920004,5.32266704 62.898666,5.36 63.032,5.36 C63.2560011,5.36 63.4106662,5.24266784 63.496,5.008 C63.5813338,4.77333216 63.624,4.38666936 63.624,3.848 C63.624,3.30933064 63.5813338,2.92266784 63.496,2.688 C63.4106662,2.45333216 63.2560011,2.336 63.032,2.336 C62.898666,2.336 62.7920004,2.37333296 62.712,2.448 C62.6319996,2.52266704 62.5720002,2.626666 62.532,2.76 C62.4919998,2.893334 62.4666667,3.0533324 62.456,3.24 C62.4453333,3.4266676 62.44,3.62933224 62.44,3.848 Z M61.336,3.848 C61.336,3.47999816 61.365333,3.15466808 61.424,2.872 C61.482667,2.58933192 61.578666,2.35333428 61.712,2.164 C61.845334,1.97466572 62.0199989,1.83066716 62.236,1.732 C62.4520011,1.63333284 62.7173318,1.584 63.032,1.584 C63.3626683,1.57866664 63.6373322,1.6226662 63.856,1.716 C64.0746678,1.8093338 64.2479994,1.95199904 64.376,2.144 C64.5040006,2.33600096 64.5946664,2.57333192 64.648,2.856 C64.7013336,3.13866808 64.728,3.46933144 64.728,3.848 C64.728,4.21600184 64.698667,4.54133192 64.64,4.824 C64.581333,5.10666808 64.485334,5.34266572 64.352,5.532 C64.218666,5.72133428 64.0440011,5.86133288 63.828,5.952 C63.6119989,6.04266712 63.3466682,6.088 63.032,6.088 C62.7013317,6.09333336 62.4266678,6.05200044 62.208,5.964 C61.9893322,5.87599956 61.8160006,5.73733428 61.688,5.548 C61.5599994,5.35866572 61.4693336,5.12133476 61.416,4.836 C61.3626664,4.55066524 61.336,4.2213352 61.336,3.848 Z M65.32,1.696 L65.32,6 L66.424,6 L66.424,3.416 C66.424,3.27199928 66.4479998,3.15066716 66.496,3.052 C66.5440002,2.95333284 66.6079996,2.87333364 66.688,2.812 C66.7680004,2.75066636 66.8559995,2.7066668 66.952,2.68 C67.0480005,2.6533332 67.1439995,2.64 67.24,2.64 C67.298667,2.64 67.3559997,2.64133332 67.412,2.644 C67.4680003,2.64666668 67.525333,2.65066664 67.584,2.656 L67.584,1.6 C67.5519998,1.59466664 67.5186668,1.59066668 67.484,1.588 C67.4493332,1.58533332 67.4160002,1.584 67.384,1.584 C67.1546655,1.584 66.9600008,1.64666604 66.8,1.772 C66.6399992,1.89733396 66.5040006,2.06399896 66.392,2.272 L66.376,2.272 L66.376,1.696 L65.32,1.696 Z" id="Lorem-ipsum-dolor"></path>
                <circle id="Oval" cx="1.5" cy="3.5" r="1.5"></circle>
            </g>
            <g id="Group" transform="translate(33.000000, 72.000000)">
                <path d="M8.4,8 L11.592,8 L11.592,7.056 L9.552,7.056 L9.552,2.288 L8.4,2.288 L8.4,8 Z M13.032,5.848 C13.032,6.06666776 13.0373333,6.2693324 13.048,6.456 C13.0586667,6.6426676 13.0839998,6.802666 13.124,6.936 C13.1640002,7.069334 13.2239996,7.17333296 13.304,7.248 C13.3840004,7.32266704 13.490666,7.36 13.624,7.36 C13.8480011,7.36 14.0026662,7.24266784 14.088,7.008 C14.1733338,6.77333216 14.216,6.38666936 14.216,5.848 C14.216,5.30933064 14.1733338,4.92266784 14.088,4.688 C14.0026662,4.45333216 13.8480011,4.336 13.624,4.336 C13.490666,4.336 13.3840004,4.37333296 13.304,4.448 C13.2239996,4.52266704 13.1640002,4.626666 13.124,4.76 C13.0839998,4.893334 13.0586667,5.0533324 13.048,5.24 C13.0373333,5.4266676 13.032,5.62933224 13.032,5.848 Z M11.928,5.848 C11.928,5.47999816 11.957333,5.15466808 12.016,4.872 C12.074667,4.58933192 12.170666,4.35333428 12.304,4.164 C12.437334,3.97466572 12.6119989,3.83066716 12.828,3.732 C13.0440011,3.63333284 13.3093318,3.584 13.624,3.584 C13.9546683,3.57866664 14.2293322,3.6226662 14.448,3.716 C14.6666678,3.8093338 14.8399994,3.95199904 14.968,4.144 C15.0960006,4.33600096 15.1866664,4.57333192 15.24,4.856 C15.2933336,5.13866808 15.32,5.46933144 15.32,5.848 C15.32,6.21600184 15.290667,6.54133192 15.232,6.824 C15.173333,7.10666808 15.077334,7.34266572 14.944,7.532 C14.810666,7.72133428 14.6360011,7.86133288 14.42,7.952 C14.2039989,8.04266712 13.9386682,8.088 13.624,8.088 C13.2933317,8.09333336 13.0186678,8.05200044 12.8,7.964 C12.5813322,7.87599956 12.4080006,7.73733428 12.28,7.548 C12.1519994,7.35866572 12.0613336,7.12133476 12.008,6.836 C11.9546664,6.55066524 11.928,6.2213352 11.928,5.848 Z M15.912,3.696 L15.912,8 L17.016,8 L17.016,5.416 C17.016,5.27199928 17.0399998,5.15066716 17.088,5.052 C17.1360002,4.95333284 17.1999996,4.87333364 17.28,4.812 C17.3600004,4.75066636 17.4479995,4.7066668 17.544,4.68 C17.6400005,4.6533332 17.7359995,4.64 17.832,4.64 C17.890667,4.64 17.9479997,4.64133332 18.004,4.644 C18.0600003,4.64666668 18.117333,4.65066664 18.176,4.656 L18.176,3.6 C18.1439998,3.59466664 18.1106668,3.59066668 18.076,3.588 C18.0413332,3.58533332 18.0080002,3.584 17.976,3.584 C17.7466655,3.584 17.5520008,3.64666604 17.392,3.772 C17.2319992,3.89733396 17.0960006,4.06399896 16.984,4.272 L16.968,4.272 L16.968,3.696 L15.912,3.696 Z M20.648,5.36 C20.6426666,5.19466584 20.6320001,5.04933396 20.616,4.924 C20.5999999,4.79866604 20.5720002,4.69200044 20.532,4.604 C20.4919998,4.51599956 20.4360004,4.44933356 20.364,4.404 C20.2919996,4.35866644 20.2000006,4.336 20.088,4.336 C19.9759994,4.336 19.8840004,4.36133308 19.812,4.412 C19.7399996,4.46266692 19.6826669,4.52933292 19.64,4.612 C19.5973331,4.69466708 19.5666668,4.78666616 19.548,4.888 C19.5293332,4.98933384 19.52,5.09066616 19.52,5.192 L19.52,5.36 L20.648,5.36 Z M19.52,6.016 L19.52,6.36 C19.52,6.48800064 19.5293332,6.6119994 19.548,6.732 C19.5666668,6.8520006 19.5973331,6.9586662 19.64,7.052 C19.6826669,7.1453338 19.7386663,7.21999972 19.808,7.276 C19.8773337,7.33200028 19.9626662,7.36 20.064,7.36 C20.2506676,7.36 20.3866662,7.293334 20.472,7.16 C20.5573338,7.026666 20.6159998,6.82400136 20.648,6.552 L21.64,6.552 C21.6186666,7.05333584 21.4853346,7.43466536 21.24,7.696 C20.9946654,7.95733464 20.6080026,8.088 20.08,8.088 C19.679998,8.088 19.3680011,8.021334 19.144,7.888 C18.9199989,7.754666 18.7546672,7.57866776 18.648,7.36 C18.5413328,7.14133224 18.4760001,6.89600136 18.452,6.624 C18.4279999,6.35199864 18.416,6.08000136 18.416,5.808 C18.416,5.51999856 18.4359998,5.242668 18.476,4.976 C18.5160002,4.709332 18.5959994,4.47200104 18.716,4.264 C18.8360006,4.05599896 19.0079989,3.89066728 19.232,3.768 C19.4560011,3.64533272 19.7546648,3.584 20.128,3.584 C20.4480016,3.584 20.7106656,3.63599948 20.916,3.74 C21.1213344,3.84400052 21.2826661,3.99066572 21.4,4.18 C21.5173339,4.36933428 21.5973331,4.59866532 21.64,4.868 C21.6826669,5.13733468 21.704,5.43733168 21.704,5.768 L21.704,6.016 L19.52,6.016 Z M22.28,3.696 L22.28,8 L23.384,8 L23.384,5.168 C23.384,4.91199872 23.4359995,4.72533392 23.54,4.608 C23.6440005,4.49066608 23.7839991,4.432 23.96,4.432 C24.1146674,4.432 24.225333,4.47999952 24.292,4.576 C24.358667,4.67200048 24.392,4.81066576 24.392,4.992 L24.392,8 L25.496,8 L25.496,5.168 C25.496,4.91199872 25.5479995,4.72533392 25.652,4.608 C25.7560005,4.49066608 25.8959991,4.432 26.072,4.432 C26.2266674,4.432 26.337333,4.47999952 26.404,4.576 C26.470667,4.67200048 26.504,4.81066576 26.504,4.992 L26.504,8 L27.608,8 L27.608,4.872 C27.608,4.45599792 27.5213342,4.13733444 27.348,3.916 C27.1746658,3.69466556 26.9040018,3.584 26.536,3.584 C26.2746654,3.584 26.0493343,3.64133276 25.86,3.756 C25.6706657,3.87066724 25.5333338,4.04266552 25.448,4.272 L25.432,4.272 C25.373333,4.04799888 25.2573342,3.87733392 25.084,3.76 C24.9106658,3.64266608 24.6960013,3.584 24.44,3.584 C24.1999988,3.584 23.9933342,3.62666624 23.82,3.712 C23.6466658,3.79733376 23.4906674,3.93866568 23.352,4.136 L23.336,4.136 L23.336,3.696 L22.28,3.696 Z M30.304,2.224 L30.304,3.168 L31.408,3.168 L31.408,2.224 L30.304,2.224 Z M30.304,3.696 L30.304,8 L31.408,8 L31.408,3.696 L30.304,3.696 Z M32.184,3.696 L33.24,3.696 L33.24,4.152 L33.256,4.152 C33.3786673,3.94933232 33.5159992,3.80400044 33.668,3.716 C33.8200008,3.62799956 34.0079989,3.584 34.232,3.584 C34.6853356,3.584 35.0186656,3.76133156 35.232,4.116 C35.4453344,4.47066844 35.552,5.047996 35.552,5.848 C35.552,6.648004 35.4453344,7.2213316 35.232,7.568 C35.0186656,7.9146684 34.6853356,8.088 34.232,8.088 C34.023999,8.088 33.8466674,8.04933372 33.7,7.972 C33.5533326,7.89466628 33.4213339,7.77066752 33.304,7.6 L33.288,7.6 L33.288,9.384 L32.184,9.384 L32.184,3.696 Z M33.288,5.848 C33.288,6.31733568 33.3239996,6.67066548 33.396,6.908 C33.4680004,7.14533452 33.6266654,7.264 33.872,7.264 C34.1120012,7.264 34.2679996,7.14533452 34.34,6.908 C34.4120004,6.67066548 34.448,6.31733568 34.448,5.848 C34.448,5.37866432 34.4120004,5.02533452 34.34,4.788 C34.2679996,4.55066548 34.1120012,4.432 33.872,4.432 C33.6266654,4.432 33.4680004,4.55066548 33.396,4.788 C33.3239996,5.02533452 33.288,5.37866432 33.288,5.848 Z M36.992,6.592 L36,6.592 L36,6.744 C36,6.95200104 36.0239998,7.13999916 36.072,7.308 C36.1200002,7.47600084 36.2039994,7.61866608 36.324,7.736 C36.4440006,7.85333392 36.6066656,7.94133304 36.812,8 C37.0173344,8.05866696 37.2746651,8.088 37.584,8.088 C37.8186678,8.088 38.0333324,8.06400024 38.228,8.016 C38.4226676,7.96799976 38.590666,7.88800056 38.732,7.776 C38.873334,7.66399944 38.9839996,7.52400084 39.064,7.356 C39.1440004,7.18799916 39.184,6.98933448 39.184,6.76 C39.184,6.43466504 39.1120007,6.17733428 38.968,5.988 C38.8239993,5.79866572 38.5786684,5.64533392 38.232,5.528 L37.568,5.304 C37.3813324,5.24533304 37.254667,5.17333376 37.188,5.088 C37.121333,5.00266624 37.088,4.9066672 37.088,4.8 C37.088,4.64533256 37.1399995,4.52933372 37.244,4.452 C37.3480005,4.37466628 37.4693326,4.336 37.608,4.336 C37.7893342,4.336 37.9159996,4.38799948 37.988,4.492 C38.0600004,4.59600052 38.096,4.75999888 38.096,4.984 L39.088,4.984 L39.088,4.808 C39.088,4.41866472 38.9680012,4.1173344 38.728,3.904 C38.4879988,3.6906656 38.1173358,3.584 37.616,3.584 C37.3333319,3.584 37.092001,3.61866632 36.892,3.688 C36.691999,3.75733368 36.5280006,3.85066608 36.4,3.968 C36.2719994,4.08533392 36.178667,4.22266588 36.12,4.38 C36.061333,4.53733412 36.032,4.70399912 36.032,4.88 C36.032,5.18400152 36.1093326,5.43333236 36.264,5.628 C36.4186674,5.82266764 36.6479985,5.9733328 36.952,6.08 L37.728,6.36 C37.8346672,6.40266688 37.9279996,6.45999964 38.008,6.532 C38.0880004,6.60400036 38.128,6.70933264 38.128,6.848 C38.128,7.01866752 38.0773338,7.14666624 37.976,7.232 C37.8746662,7.31733376 37.7386675,7.36 37.568,7.36 C37.3813324,7.36 37.2386672,7.30266724 37.14,7.188 C37.0413328,7.07333276 36.992,6.9226676 36.992,6.736 L36.992,6.592 Z M41.944,7.496 L41.944,8 L43,8 L43,3.696 L41.896,3.696 L41.896,6.552 C41.896,7.02666904 41.7013353,7.264 41.312,7.264 C41.1466658,7.264 41.026667,7.22000044 40.952,7.132 C40.877333,7.04399956 40.84,6.88800112 40.84,6.664 L40.84,3.696 L39.736,3.696 L39.736,6.888 C39.736,7.32000216 39.8306657,7.62799908 40.02,7.812 C40.2093343,7.99600092 40.4799982,8.088 40.832,8.088 C41.0720012,8.088 41.2853324,8.04266712 41.472,7.952 C41.6586676,7.86133288 41.8106661,7.7093344 41.928,7.496 L41.944,7.496 Z M43.736,3.696 L43.736,8 L44.84,8 L44.84,5.168 C44.84,4.91199872 44.8919995,4.72533392 44.996,4.608 C45.1000005,4.49066608 45.2399991,4.432 45.416,4.432 C45.5706674,4.432 45.681333,4.47999952 45.748,4.576 C45.814667,4.67200048 45.848,4.81066576 45.848,4.992 L45.848,8 L46.952,8 L46.952,5.168 C46.952,4.91199872 47.0039995,4.72533392 47.108,4.608 C47.2120005,4.49066608 47.3519991,4.432 47.528,4.432 C47.6826674,4.432 47.793333,4.47999952 47.86,4.576 C47.926667,4.67200048 47.96,4.81066576 47.96,4.992 L47.96,8 L49.064,8 L49.064,4.872 C49.064,4.45599792 48.9773342,4.13733444 48.804,3.916 C48.6306658,3.69466556 48.3600018,3.584 47.992,3.584 C47.7306654,3.584 47.5053343,3.64133276 47.316,3.756 C47.1266657,3.87066724 46.9893338,4.04266552 46.904,4.272 L46.888,4.272 C46.829333,4.04799888 46.7133342,3.87733392 46.54,3.76 C46.3666658,3.64266608 46.1520013,3.584 45.896,3.584 C45.6559988,3.584 45.4493342,3.62666624 45.276,3.712 C45.1026658,3.79733376 44.9466674,3.93866568 44.808,4.136 L44.792,4.136 L44.792,3.696 L43.736,3.696 Z M53.928,7.544 L53.912,7.544 C53.7893327,7.74666768 53.6520008,7.8879996 53.5,7.968 C53.3479992,8.0480004 53.1600011,8.088 52.936,8.088 C52.4826644,8.088 52.1493344,7.9146684 51.936,7.568 C51.7226656,7.2213316 51.616,6.648004 51.616,5.848 C51.616,5.047996 51.7226656,4.47066844 51.936,4.116 C52.1493344,3.76133156 52.4826644,3.584 52.936,3.584 C53.144001,3.584 53.3213326,3.62666624 53.468,3.712 C53.6146674,3.79733376 53.7466661,3.92533248 53.864,4.096 L53.88,4.096 L53.88,2.288 L54.984,2.288 L54.984,8 L53.928,8 L53.928,7.544 Z M52.72,5.848 C52.72,6.31733568 52.7559996,6.67066548 52.828,6.908 C52.9000004,7.14533452 53.0559988,7.264 53.296,7.264 C53.5413346,7.264 53.6999996,7.14533452 53.772,6.908 C53.8440004,6.67066548 53.88,6.31733568 53.88,5.848 C53.88,5.37866432 53.8440004,5.02533452 53.772,4.788 C53.6999996,4.55066548 53.5413346,4.432 53.296,4.432 C53.0559988,4.432 52.9000004,4.55066548 52.828,4.788 C52.7559996,5.02533452 52.72,5.37866432 52.72,5.848 Z M56.68,5.848 C56.68,6.06666776 56.6853333,6.2693324 56.696,6.456 C56.7066667,6.6426676 56.7319998,6.802666 56.772,6.936 C56.8120002,7.069334 56.8719996,7.17333296 56.952,7.248 C57.0320004,7.32266704 57.138666,7.36 57.272,7.36 C57.4960011,7.36 57.6506662,7.24266784 57.736,7.008 C57.8213338,6.77333216 57.864,6.38666936 57.864,5.848 C57.864,5.30933064 57.8213338,4.92266784 57.736,4.688 C57.6506662,4.45333216 57.4960011,4.336 57.272,4.336 C57.138666,4.336 57.0320004,4.37333296 56.952,4.448 C56.8719996,4.52266704 56.8120002,4.626666 56.772,4.76 C56.7319998,4.893334 56.7066667,5.0533324 56.696,5.24 C56.6853333,5.4266676 56.68,5.62933224 56.68,5.848 Z M55.576,5.848 C55.576,5.47999816 55.605333,5.15466808 55.664,4.872 C55.722667,4.58933192 55.818666,4.35333428 55.952,4.164 C56.085334,3.97466572 56.2599989,3.83066716 56.476,3.732 C56.6920011,3.63333284 56.9573318,3.584 57.272,3.584 C57.6026683,3.57866664 57.8773322,3.6226662 58.096,3.716 C58.3146678,3.8093338 58.4879994,3.95199904 58.616,4.144 C58.7440006,4.33600096 58.8346664,4.57333192 58.888,4.856 C58.9413336,5.13866808 58.968,5.46933144 58.968,5.848 C58.968,6.21600184 58.938667,6.54133192 58.88,6.824 C58.821333,7.10666808 58.725334,7.34266572 58.592,7.532 C58.458666,7.72133428 58.2840011,7.86133288 58.068,7.952 C57.8519989,8.04266712 57.5866682,8.088 57.272,8.088 C56.9413317,8.09333336 56.6666678,8.05200044 56.448,7.964 C56.2293322,7.87599956 56.0560006,7.73733428 55.928,7.548 C55.7999994,7.35866572 55.7093336,7.12133476 55.656,6.836 C55.6026664,6.55066524 55.576,6.2213352 55.576,5.848 Z M59.6,2.288 L59.6,8 L60.704,8 L60.704,2.288 L59.6,2.288 Z M62.44,5.848 C62.44,6.06666776 62.4453333,6.2693324 62.456,6.456 C62.4666667,6.6426676 62.4919998,6.802666 62.532,6.936 C62.5720002,7.069334 62.6319996,7.17333296 62.712,7.248 C62.7920004,7.32266704 62.898666,7.36 63.032,7.36 C63.2560011,7.36 63.4106662,7.24266784 63.496,7.008 C63.5813338,6.77333216 63.624,6.38666936 63.624,5.848 C63.624,5.30933064 63.5813338,4.92266784 63.496,4.688 C63.4106662,4.45333216 63.2560011,4.336 63.032,4.336 C62.898666,4.336 62.7920004,4.37333296 62.712,4.448 C62.6319996,4.52266704 62.5720002,4.626666 62.532,4.76 C62.4919998,4.893334 62.4666667,5.0533324 62.456,5.24 C62.4453333,5.4266676 62.44,5.62933224 62.44,5.848 Z M61.336,5.848 C61.336,5.47999816 61.365333,5.15466808 61.424,4.872 C61.482667,4.58933192 61.578666,4.35333428 61.712,4.164 C61.845334,3.97466572 62.0199989,3.83066716 62.236,3.732 C62.4520011,3.63333284 62.7173318,3.584 63.032,3.584 C63.3626683,3.57866664 63.6373322,3.6226662 63.856,3.716 C64.0746678,3.8093338 64.2479994,3.95199904 64.376,4.144 C64.5040006,4.33600096 64.5946664,4.57333192 64.648,4.856 C64.7013336,5.13866808 64.728,5.46933144 64.728,5.848 C64.728,6.21600184 64.698667,6.54133192 64.64,6.824 C64.581333,7.10666808 64.485334,7.34266572 64.352,7.532 C64.218666,7.72133428 64.0440011,7.86133288 63.828,7.952 C63.6119989,8.04266712 63.3466682,8.088 63.032,8.088 C62.7013317,8.09333336 62.4266678,8.05200044 62.208,7.964 C61.9893322,7.87599956 61.8160006,7.73733428 61.688,7.548 C61.5599994,7.35866572 61.4693336,7.12133476 61.416,6.836 C61.3626664,6.55066524 61.336,6.2213352 61.336,5.848 Z M65.32,3.696 L65.32,8 L66.424,8 L66.424,5.416 C66.424,5.27199928 66.4479998,5.15066716 66.496,5.052 C66.5440002,4.95333284 66.6079996,4.87333364 66.688,4.812 C66.7680004,4.75066636 66.8559995,4.7066668 66.952,4.68 C67.0480005,4.6533332 67.1439995,4.64 67.24,4.64 C67.298667,4.64 67.3559997,4.64133332 67.412,4.644 C67.4680003,4.64666668 67.525333,4.65066664 67.584,4.656 L67.584,3.6 C67.5519998,3.59466664 67.5186668,3.59066668 67.484,3.588 C67.4493332,3.58533332 67.4160002,3.584 67.384,3.584 C67.1546655,3.584 66.9600008,3.64666604 66.8,3.772 C66.6399992,3.89733396 66.5040006,4.06399896 66.392,4.272 L66.376,4.272 L66.376,3.696 L65.32,3.696 Z" id="Lorem-ipsum-dolor"></path>
                <circle id="Oval" cx="1.5" cy="5.5" r="1.5"></circle>
            </g>
        </g>
    </g>
</svg>