<?xml version="1.0" encoding="UTF-8"?>
<svg width="150px" height="100px" viewBox="0 0 150 100" version="1.1" xmlns="http://www.w3.org/2000/svg" xmlns:xlink="http://www.w3.org/1999/xlink">
    <!-- Generator: Sketch 47.1 (45422) - http://www.bohemiancoding.com/sketch -->
    <title>pricing</title>
    <desc>Created with Sketch.</desc>
    <defs></defs>
    <g id="Page-1" stroke="none" stroke-width="1" fill="none" fill-rule="evenodd">
        <g id="pricing">
            <g id="Group-2" transform="translate(25.000000, 17.000000)">
                <g id="Group">
                    <rect id="Rectangle" stroke="#FF6B6B" stroke-width="1.6" x="0.8" y="0.8" width="30.4" height="64.0587571"></rect>
                    <path d="M6,17.5389831 L26,17.5389831" id="Line" stroke="#FF6B6B" stroke-linecap="square"></path>
                    <path d="M8.4,9.4440678 L23.6,9.4440678" id="Line" stroke="#FF6B6B" stroke-width="4" stroke-linecap="square"></path>
                    <path d="M8.4,22.9355932 L23.2054044,22.9355932" id="Line" stroke="#FF6B6B" stroke-linecap="square"></path>
                    <path d="M7.6,28.3322034 L24.8,28.3322034" id="Line" stroke="#FF6B6B" stroke-linecap="square"></path>
                    <path d="M9.2,33.7288136 L24,33.7288136" id="Line" stroke="#FF6B6B" stroke-linecap="square"></path>
                    <path d="M6,39.1254237 L26.4,39.1254237" id="Line" stroke="#FF6B6B" stroke-linecap="square"></path>
                    <path d="M8.48,51.1289492 L11.264,51.1289492 L11.264,50.6489492 C11.264,50.3289476 11.2879998,50.0702835 11.336,49.8729492 C11.3840002,49.6756148 11.4479996,49.5236164 11.528,49.4169492 C11.6080004,49.310282 11.6959995,49.2382827 11.792,49.2009492 C11.8880005,49.1636156 11.9893328,49.1449492 12.096,49.1449492 C12.3306678,49.1449492 12.5173326,49.2356149 12.656,49.4169492 C12.7946674,49.5982834 12.864,49.9289468 12.864,50.4089492 C12.864,50.835618 12.8026673,51.1796145 12.68,51.4409492 C12.5573327,51.7022838 12.3520014,51.9769477 12.064,52.2649492 L10.08,54.2809492 C9.42933008,54.9529525 8.9840012,55.6436123 8.744,56.3529492 C8.5039988,57.062286 8.384,57.8169452 8.384,58.6169492 L15.84,58.6169492 L15.84,56.3769492 L11.936,56.3769492 C11.9893336,56.2062816 12.0933326,56.04095 12.248,55.8809492 C12.4026674,55.7209484 12.5439994,55.5769498 12.672,55.4489492 L14.432,53.7369492 C14.8586688,53.3102804 15.1999987,52.8356184 15.456,52.3129492 C15.7120013,51.7902799 15.84,51.144953 15.84,50.3769492 C15.84,49.9502804 15.7893338,49.5502844 15.688,49.1769492 C15.5866662,48.803614 15.4000014,48.4756172 15.128,48.1929492 C14.8559986,47.9102811 14.4853357,47.68895 14.016,47.5289492 C13.5466643,47.3689484 12.9386704,47.2889492 12.192,47.2889492 C11.4133294,47.2889492 10.7840024,47.3796149 10.304,47.5609492 C9.8239976,47.7422834 9.450668,48.0009475 9.184,48.3369492 C8.917332,48.6729508 8.73600048,49.0782801 8.64,49.5529492 C8.54399952,50.0276182 8.49066672,50.5529463 8.48,51.1289492 Z M19.68,54.9369492 C19.68,55.7369532 19.7493326,56.2782811 19.888,56.5609492 C20.0266674,56.8436172 20.2506651,56.9849492 20.56,56.9849492 C20.8693349,56.9849492 21.0933326,56.8436172 21.232,56.5609492 C21.3706674,56.2782811 21.44,55.7369532 21.44,54.9369492 L21.44,51.1929492 C21.44,50.3929452 21.3706674,49.8516172 21.232,49.5689492 C21.0933326,49.2862811 20.8693349,49.1449492 20.56,49.1449492 C20.2506651,49.1449492 20.0266674,49.2862811 19.888,49.5689492 C19.7493326,49.8516172 19.68,50.3929452 19.68,51.1929492 L19.68,54.9369492 Z M16.704,53.0649492 C16.704,51.9236101 16.7813326,50.9796196 16.936,50.2329492 C17.0906674,49.4862788 17.3253318,48.8942847 17.64,48.4569492 C17.9546682,48.0196136 18.3546642,47.7156167 18.84,47.5449492 C19.3253358,47.3742816 19.8986634,47.2889492 20.56,47.2889492 C21.2213366,47.2889492 21.7946642,47.3742816 22.28,47.5449492 C22.7653358,47.7156167 23.1653318,48.0196136 23.48,48.4569492 C23.7946682,48.8942847 24.0293326,49.4862788 24.184,50.2329492 C24.3386674,50.9796196 24.416,51.9236101 24.416,53.0649492 C24.416,54.2169549 24.3386674,55.1636121 24.184,55.9049492 C24.0293326,56.6462862 23.7946682,57.232947 23.48,57.6649492 C23.1653318,58.0969513 22.7653358,58.3929484 22.28,58.5529492 C21.7946642,58.71295 21.2213366,58.7929492 20.56,58.7929492 C19.8986634,58.7929492 19.3253358,58.71295 18.84,58.5529492 C18.3546642,58.3929484 17.9546682,58.0969513 17.64,57.6649492 C17.3253318,57.232947 17.0906674,56.6462862 16.936,55.9049492 C16.7813326,55.1636121 16.704,54.2169549 16.704,53.0649492 Z" id="20" fill="#FF6B6B"></path>
                </g>
                <g id="Group" transform="translate(34.000000, 0.000000)">
                    <rect id="Rectangle" stroke="#FF6B6B" stroke-width="1.6" x="0.8" y="0.8" width="30.4" height="64.0587571"></rect>
                    <path d="M6,17.5389831 L26,17.5389831" id="Line" stroke="#FF6B6B" stroke-linecap="square"></path>
                    <path d="M8.4,9.4440678 L23.6,9.4440678" id="Line" stroke="#FF6B6B" stroke-width="4" stroke-linecap="square"></path>
                    <path d="M8.4,22.9355932 L23.2054044,22.9355932" id="Line" stroke="#FF6B6B" stroke-linecap="square"></path>
                    <path d="M7.6,28.3322034 L24.8,28.3322034" id="Line" stroke="#FF6B6B" stroke-linecap="square"></path>
                    <path d="M9.2,33.7288136 L24,33.7288136" id="Line" stroke="#FF6B6B" stroke-linecap="square"></path>
                    <path d="M6,39.1254237 L26.4,39.1254237" id="Line" stroke="#FF6B6B" stroke-linecap="square"></path>
                    <path d="M8.512,50.7129492 L11.2,50.7129492 C11.2,50.1156128 11.2613327,49.7049503 11.384,49.4809492 C11.5066673,49.256948 11.7119986,49.1449492 12,49.1449492 C12.2560013,49.1449492 12.4453327,49.227615 12.568,49.3929492 C12.6906673,49.5582833 12.752,49.8809468 12.752,50.3609492 C12.752,50.6916175 12.7253336,50.9609481 12.672,51.1689492 C12.6186664,51.3769502 12.5386672,51.5396152 12.432,51.6569492 C12.3253328,51.7742831 12.1920008,51.8542823 12.032,51.8969492 C11.8719992,51.939616 11.6800011,51.9609492 11.456,51.9609492 L11.024,51.9609492 L11.024,53.8169492 L11.776,53.8169492 C12.1493352,53.8169492 12.4239991,53.9129482 12.6,54.1049492 C12.7760009,54.2969501 12.864,54.6702797 12.864,55.2249492 C12.864,55.5769509 12.8533334,55.8676147 12.832,56.0969492 C12.8106666,56.3262836 12.770667,56.5076152 12.712,56.6409492 C12.653333,56.7742832 12.5706672,56.8649489 12.464,56.9129492 C12.3573328,56.9609494 12.2186675,56.9849492 12.048,56.9849492 C11.7279984,56.9849492 11.5040006,56.8462839 11.376,56.5689492 C11.3119997,56.4196151 11.2613335,56.2382836 11.224,56.0249492 C11.1866665,55.8116148 11.168,55.5449508 11.168,55.2249492 L8.384,55.2249492 C8.384,55.9076192 8.45866592,56.4809468 8.608,56.9449492 C8.75733408,57.4089515 8.98666512,57.7796144 9.296,58.0569492 C9.60533488,58.3342839 9.99733096,58.526282 10.472,58.6329492 C10.946669,58.7396164 11.5039968,58.7929492 12.144,58.7929492 C13.3706728,58.7929492 14.2933302,58.512952 14.912,57.9529492 C15.5306698,57.3929464 15.84,56.4729556 15.84,55.1929492 C15.84,54.5742794 15.706668,54.0382848 15.44,53.5849492 C15.173332,53.1316136 14.7093366,52.8409498 14.048,52.7129492 L14.048,52.6809492 C14.3466682,52.6169488 14.5973323,52.50495 14.8,52.3449492 C15.0026677,52.1849484 15.1653327,52.0009502 15.288,51.7929492 C15.4106673,51.5849481 15.4986664,51.3609504 15.552,51.1209492 C15.6053336,50.880948 15.632,50.6489503 15.632,50.4249492 C15.632,49.9236133 15.5760006,49.4782844 15.464,49.0889492 C15.3519994,48.6996139 15.1600014,48.3716172 14.888,48.1049492 C14.6159986,47.8382812 14.250669,47.6356165 13.792,47.4969492 C13.333331,47.3582818 12.7573368,47.2889492 12.064,47.2889492 C10.9013275,47.2889492 10.0266696,47.5662797 9.44,48.1209492 C8.8533304,48.6649519 8.54400016,49.5289432 8.512,50.7129492 Z M19.68,54.9369492 C19.68,55.7369532 19.7493326,56.2782811 19.888,56.5609492 C20.0266674,56.8436172 20.2506651,56.9849492 20.56,56.9849492 C20.8693349,56.9849492 21.0933326,56.8436172 21.232,56.5609492 C21.3706674,56.2782811 21.44,55.7369532 21.44,54.9369492 L21.44,51.1929492 C21.44,50.3929452 21.3706674,49.8516172 21.232,49.5689492 C21.0933326,49.2862811 20.8693349,49.1449492 20.56,49.1449492 C20.2506651,49.1449492 20.0266674,49.2862811 19.888,49.5689492 C19.7493326,49.8516172 19.68,50.3929452 19.68,51.1929492 L19.68,54.9369492 Z M16.704,53.0649492 C16.704,51.9236101 16.7813326,50.9796196 16.936,50.2329492 C17.0906674,49.4862788 17.3253318,48.8942847 17.64,48.4569492 C17.9546682,48.0196136 18.3546642,47.7156167 18.84,47.5449492 C19.3253358,47.3742816 19.8986634,47.2889492 20.56,47.2889492 C21.2213366,47.2889492 21.7946642,47.3742816 22.28,47.5449492 C22.7653358,47.7156167 23.1653318,48.0196136 23.48,48.4569492 C23.7946682,48.8942847 24.0293326,49.4862788 24.184,50.2329492 C24.3386674,50.9796196 24.416,51.9236101 24.416,53.0649492 C24.416,54.2169549 24.3386674,55.1636121 24.184,55.9049492 C24.0293326,56.6462862 23.7946682,57.232947 23.48,57.6649492 C23.1653318,58.0969513 22.7653358,58.3929484 22.28,58.5529492 C21.7946642,58.71295 21.2213366,58.7929492 20.56,58.7929492 C19.8986634,58.7929492 19.3253358,58.71295 18.84,58.5529492 C18.3546642,58.3929484 17.9546682,58.0969513 17.64,57.6649492 C17.3253318,57.232947 17.0906674,56.6462862 16.936,55.9049492 C16.7813326,55.1636121 16.704,54.2169549 16.704,53.0649492 Z" id="30" fill="#FF6B6B"></path>
                </g>
                <g id="Group" transform="translate(68.000000, 0.000000)">
                    <rect id="Rectangle" stroke="#FF6B6B" stroke-width="1.6" x="0.8" y="0.8" width="30.4" height="64.0587571"></rect>
                    <path d="M6,17.5389831 L26,17.5389831" id="Line" stroke="#FF6B6B" stroke-linecap="square"></path>
                    <path d="M8.4,9.4440678 L23.6,9.4440678" id="Line" stroke="#FF6B6B" stroke-width="4" stroke-linecap="square"></path>
                    <path d="M8.4,22.9355932 L23.2054044,22.9355932" id="Line" stroke="#FF6B6B" stroke-linecap="square"></path>
                    <path d="M7.6,28.3322034 L24.8,28.3322034" id="Line" stroke="#FF6B6B" stroke-linecap="square"></path>
                    <path d="M9.2,33.7288136 L24,33.7288136" id="Line" stroke="#FF6B6B" stroke-linecap="square"></path>
                    <path d="M6,39.1254237 L26.4,39.1254237" id="Line" stroke="#FF6B6B" stroke-linecap="square"></path>
                    <path d="M8.336,54.2649492 L11.92,47.5129492 L15.152,47.5129492 L15.152,54.3609492 L16.144,54.3609492 L16.144,56.5049492 L15.152,56.5049492 L15.152,58.6169492 L12.368,58.6169492 L12.368,56.5049492 L8.336,56.5049492 L8.336,54.2649492 Z M12.464,54.3609492 L12.464,50.5849492 L12.432,50.5849492 L10.576,54.3609492 L12.464,54.3609492 Z M19.68,54.9369492 C19.68,55.7369532 19.7493326,56.2782811 19.888,56.5609492 C20.0266674,56.8436172 20.2506651,56.9849492 20.56,56.9849492 C20.8693349,56.9849492 21.0933326,56.8436172 21.232,56.5609492 C21.3706674,56.2782811 21.44,55.7369532 21.44,54.9369492 L21.44,51.1929492 C21.44,50.3929452 21.3706674,49.8516172 21.232,49.5689492 C21.0933326,49.2862811 20.8693349,49.1449492 20.56,49.1449492 C20.2506651,49.1449492 20.0266674,49.2862811 19.888,49.5689492 C19.7493326,49.8516172 19.68,50.3929452 19.68,51.1929492 L19.68,54.9369492 Z M16.704,53.0649492 C16.704,51.9236101 16.7813326,50.9796196 16.936,50.2329492 C17.0906674,49.4862788 17.3253318,48.8942847 17.64,48.4569492 C17.9546682,48.0196136 18.3546642,47.7156167 18.84,47.5449492 C19.3253358,47.3742816 19.8986634,47.2889492 20.56,47.2889492 C21.2213366,47.2889492 21.7946642,47.3742816 22.28,47.5449492 C22.7653358,47.7156167 23.1653318,48.0196136 23.48,48.4569492 C23.7946682,48.8942847 24.0293326,49.4862788 24.184,50.2329492 C24.3386674,50.9796196 24.416,51.9236101 24.416,53.0649492 C24.416,54.2169549 24.3386674,55.1636121 24.184,55.9049492 C24.0293326,56.6462862 23.7946682,57.232947 23.48,57.6649492 C23.1653318,58.0969513 22.7653358,58.3929484 22.28,58.5529492 C21.7946642,58.71295 21.2213366,58.7929492 20.56,58.7929492 C19.8986634,58.7929492 19.3253358,58.71295 18.84,58.5529492 C18.3546642,58.3929484 17.9546682,58.0969513 17.64,57.6649492 C17.3253318,57.232947 17.0906674,56.6462862 16.936,55.9049492 C16.7813326,55.1636121 16.704,54.2169549 16.704,53.0649492 Z" id="40" fill="#FF6B6B"></path>
                </g>
            </g>
        </g>
    </g>
</svg>