<svg version="1.1" id="Ebene_1" xmlns="http://www.w3.org/2000/svg" xmlns:xlink="http://www.w3.org/1999/xlink" x="0px" y="0px"
	 viewBox="0 0 147.4 147.4" enable-background="new 0 0 147.4 147.4" xml:space="preserve">
<g>
	<path fill-rule="evenodd" clip-rule="evenodd" fill="#FF6B6B" d="M100.6,36l-13.1-7.6L52.1,8C28.6-5.6,7.8,5.7,7.6,43.9l0,1.1
		L49,64.9c5.6,2.7,1.7,13.9-6.9,9.7L7.5,57.7l-0.2,44c-0.2,31.8,17,52.6,43.1,39.2l37.1-21.4l13-7.5c-11.2-9.2-15.4-31.4-12.8-49.8
		L51.6,44.7c-5.6-2.7-1.7-13.9,6.9-9.7l31.9,15.6C92.7,44.2,96.1,38.9,100.6,36"/>
	<path fill-rule="evenodd" clip-rule="evenodd" fill="#FF6B6B" d="M124.7,49.9l-13.5-7.8c-20.3,7.6-16,59.9-0.1,63.7l11.9-6.8
		C147.8,84.6,143.4,60.7,124.7,49.9"/>
</g>
</svg>
