<svg xmlns="http://www.w3.org/2000/svg" viewBox="0 0 609.4 153">
    <path fill-rule="evenodd" clip-rule="evenodd" fill="#FF6B6B" d="M100.3 38.7l-13.1-7.6-35.4-20.4C28.3-2.8 7.5 8.4 7.3 46.6v1.1l41.4 19.9c5.6 2.7 1.7 13.9-6.9 9.7L7.2 60.4l-.2 44c-.2 31.8 17 52.6 43.1 39.2l37.1-21.4 13-7.5C89 105.4 84.8 83.2 87.4 64.8L51.3 47.4c-5.6-2.7-1.7-13.9 6.9-9.7l31.9 15.6c2.3-6.4 5.7-11.7 10.2-14.6"/>
    <path fill-rule="evenodd" clip-rule="evenodd" fill="#FFF" d="M124.3 52.6l-13.5-7.8c-20.3 7.6-16 59.9-.1 63.7l11.9-6.8c24.9-14.4 20.4-38.3 1.7-49.1M390.1 113.1L362 40.7h21.8l15 44.7 15.1-44.7h21.2l-28 72.4zM357.6 22.6c0 3.3-1.1 5.9-3.3 7.8-4.4 3.8-12.2 3.8-16.7 0-2.2-1.9-3.3-4.5-3.3-7.8s1.1-5.9 3.3-7.8c4.4-3.8 12.2-3.8 16.7 0 2.2 1.8 3.3 4.5 3.3 7.8zM335.7 40.7h20.5v72.4h-20.5zM464.1 22.6c0 3.3-1.1 5.9-3.3 7.8-4.4 3.8-12.2 3.8-16.7 0-2.2-1.9-3.3-4.5-3.3-7.8s1.1-5.9 3.3-7.8c4.4-3.8 12.2-3.8 16.7 0 2.2 1.8 3.3 4.5 3.3 7.8zM442.3 40.7h20.5v72.4h-20.5zM327.8 58.6c-1.6-.4-3.4-.8-5.4-1.2-15.4-3.1-16.7 2.6-16.7 15.9v39.8h-20.5V67.8c0-19.7 2.7-28.7 29.8-28.7 1.1 0 2.4.1 4 .2s3.1.3 4.7.6c1.4.2 2.8.4 4.2.7v18zM224.2 76.9c0-5.2.8-10.2 2.5-14.8 1.7-4.6 4.2-8.7 7.4-12.1 3.2-3.4 7.1-6.2 11.7-8.2 4.6-2 9.8-3 15.7-3 3.9 0 7.4.3 10.6 1 1.7.4 3.4.8 5.1 1.4v18c-1.9-.7-4-1.4-6.3-1.9-2.3-.6-4.9-.8-7.7-.8-6.1 0-10.6 1.9-13.6 5.6-3 3.8-4.5 8.7-4.5 14.9 0 6.5 1.4 11.6 4.2 15.2 2.8 3.6 7.7 5.4 14.7 5.4 2.5 0 5.1-.2 8-.7 1.8-.3 3.6-.7 5.2-1.2v17.7c-1.1.3-2.2.5-3.4.8-3.6.7-7.5 1.1-11.8 1.1-6.6 0-12.3-1-17.1-3-4.8-2-8.7-4.7-11.8-8.1-3.1-3.4-5.3-7.4-6.7-12.1-1.5-4.8-2.2-9.8-2.2-15.2zM189.5 98.4c3.8 0 6.4-.4 8-1.1 1.6-.7 2.3-2.2 2.3-4.3 0-1.7-1-3.1-3-4.3-2-1.2-5.1-2.6-9.2-4.2-3.2-1.2-6.1-2.4-8.7-3.7-2.6-1.3-4.8-2.8-6.7-4.6-1.8-1.8-3.3-3.9-4.3-6.4-1-2.5-1.5-5.5-1.5-9 0-6.8 2.5-12.2 7.6-16.1 5.1-3.9 12-5.9 20.8-5.9 4.4 0 8.6.4 12.7 1.2 2 .4 3.8.8 5.4 1.2v17.1c-2.2-.7-4.6-1.4-7.1-2-2.8-.6-5.9-1-9.4-1-6.4 0-9.6 1.8-9.6 5.4 0 .8.1 1.6.4 2.2.3.6.8 1.3 1.7 1.9.8.6 2 1.2 3.4 1.9s3.2 1.5 5.4 2.3c4.5 1.7 8.2 3.3 11.2 4.9 2.9 1.6 5.3 3.4 7 5.2 1.7 1.9 2.9 4 3.6 6.3.7 2.3 1 4.9 1 8 0 7.1-2.7 12.6-8.1 16.2-5.4 3.7-13 5.5-22.8 5.5-6.4 0-11.8-.6-16-1.7-2-.5-3.8-1-5.2-1.4V94.1c3.4 1.3 6.9 2.4 10.5 3.1 3.4.8 7 1.2 10.6 1.2z"/>
    <path fill="#FFF" d="M515.8 113.8c-3.1.7-6.9 1.1-11.5 1.1-5.8 0-10.5-.8-14.3-2.3-3.8-1.5-6.8-3.6-9.1-6.4-2.3-2.7-3.8-6-4.7-9.9-.9-3.9-1.3-8.2-1.3-12.9V22.2l21.1-3.3v21.5h16.1v17.2H496v25.6c0 4.3.8 7.8 2.3 10.4 1.6 2.6 4.7 3.9 9.4 3.9 2.3 0 2.8-.2 5.2-.6l2.9 16.9zM591.4 76.7c0 5.7-.8 11-2.5 15.7-1.7 4.8-4.2 8.8-7.4 12.2-3.2 3.4-7.1 6-11.5 7.8-4.5 1.8-9.5 2.8-15.1 2.8-5.5 0-10.5-.9-14.9-2.8-4.5-1.8-8.3-4.5-11.5-7.8-3.2-3.4-5.7-7.4-7.5-12.2-1.8-4.8-2.7-10-2.7-15.7 0-5.7.9-11 2.8-15.7 1.8-4.7 4.4-8.7 7.6-12.1 3.3-3.3 7.1-5.9 11.6-7.8 4.5-1.8 9.4-2.8 14.6-2.8 5.4 0 10.3.9 14.8 2.8 4.5 1.8 8.3 4.4 11.5 7.8 3.2 3.3 5.7 7.3 7.5 12.1 1.8 4.7 2.7 10 2.7 15.7zm-21.5 0c0-6.4-1.3-11.4-3.9-15-2.6-3.6-6.3-5.5-11.1-5.5s-8.5 1.8-11.2 5.5c-2.6 3.7-4 8.7-4 15 0 6.4 1.3 11.4 4 15.2 2.6 3.7 6.4 5.6 11.2 5.6s8.5-1.9 11.1-5.6c2.6-3.8 3.9-8.8 3.9-15.2z"/>
</svg>
